 <svg class="img-fluid animate__animated animate__fadeIn" style="background: transparent" id="outputsvg" xmlns="http://www.w3.org/2000/svg" height="1000px" viewBox="0 0 5000 10000" width="500px">
     <g id="l34xQModdKMiPnD7X3IQjaa" fill="#3A5AE2"  style="transform: none;">
         <g style="transform: none;">

             <path id="p12E7HZIoW" d="M10 11104 l0 -386 38 4 c26 2 125 55 334 177 293 171 298 175 298 206 0 32 -5 36 -301 209 -231 135 -308 176 -335 176 l-34 0 0 -386z"></path>
             <path id="pU2yFKfo4" d="M1070 11317 l-295 -174 0 -38 0 -38 295 -173 c214 -125 304 -173 328 -174 l32 0 0 385 0 385 -32 0 c-24 0 -110 -46 -328 -173z"></path>
             <path id="p0DGPbjmY" d="M1450 11105 l0 -385 35 0 c27 0 101 39 332 174 l298 174 0 38 0 37 -295 173 c-238 140 -302 173 -332 174 l-38 0 0 -385z"></path>
             <path id="puTGBcasq" d="M2510 11315 l-295 -174 0 -35 0 -36 299 -175 c226 -132 307 -175 333 -175 l33 0 0 385 0 385 -37 -1 c-30 0 -98 -36 -333 -174z"></path>
             <path id="pP5Y3CMxn" d="M3960 11317 l-295 -172 -3 -37 -3 -36 143 -85 c400 -236 456 -267 487 -267 l31 0 0 385 0 385 -32 0 c-24 0 -111 -46 -328 -173z"></path>
             <path id="pGJxrN9In" d="M4340 11105 l0 -385 35 0 c26 0 102 40 335 176 l301 176 -3 36 c-3 34 -6 36 -298 208 -238 140 -302 173 -332 174 l-38 0 0 -385z"></path>
             <path id="p15jOIBsjl" d="M730 10645 l0 -375 40 0 c33 0 86 27 327 169 285 167 288 169 291 203 l3 35 -293 172 c-239 140 -299 171 -330 171 l-38 0 0 -375z"></path>
             <path id="p1TncZRuu" d="M1790 10850 l-285 -168 0 -38 0 -38 135 -79 c74 -44 173 -100 220 -124 47 -25 114 -65 151 -89 51 -35 74 -44 107 -44 l42 0 0 375 0 375 -42 -1 c-37 -1 -86 -26 -328 -169z"></path>
             <path id="p1FuUuPsnm" d="M2180 10645 l0 -375 37 0 c29 0 95 34 330 172 284 166 293 172 293 202 0 30 -9 36 -295 204 -231 135 -302 172 -330 172 l-35 0 0 -375z"></path>
             <path id="p8U8mjVfD" d="M3235 10849 c-282 -165 -290 -170 -293 -203 l-3 -33 302 -177 c202 -118 311 -176 330 -176 l29 0 0 380 0 380 -37 0 c-31 -1 -95 -34 -328 -171z"></path>
             <path id="pcqO6yZxB" d="M3620 10645 l0 -375 39 0 c32 0 88 29 327 169 284 166 289 170 292 204 l3 34 -293 172 c-237 138 -301 171 -331 171 l-37 0 0 -375z"></path>
             <path id="pKDTT1amL" d="M4680 10850 l-285 -167 0 -39 0 -38 285 -167 c228 -135 292 -168 323 -168 l37 -1 0 375 0 375 -37 -1 c-30 -1 -98 -36 -323 -169z"></path>
             <path id="pL126lGUu" d="M20 10160 l0 -360 36 0 c29 0 94 33 316 163 l278 162 -2 34 c-3 34 -7 37 -282 198 -211 124 -286 163 -312 163 l-34 0 0 -360z"></path>
             <path id="pyDgdNAVj" d="M1464 10468 c3 -29 6 -191 6 -360 l0 -308 34 0 c25 0 101 39 310 161 l276 162 0 36 0 36 -279 163 c-225 130 -287 162 -317 162 l-37 0 7 -52z"></path>
             <path id="pXOP02XqS" d="M2520 10357 c-271 -160 -275 -163 -278 -197 l-3 -35 279 -162 c223 -130 286 -163 315 -163 l37 0 0 360 0 360 -37 -1 c-30 0 -95 -34 -313 -162z"></path>
             <path id="phNgxgWoY" d="M3968 10357 l-278 -162 0 -37 0 -36 276 -161 c211 -123 283 -161 310 -161 l34 0 0 360 0 360 -32 0 c-24 0 -107 -43 -310 -163z"></path>
             <path id="p1EYVfCVLp" d="M4350 10160 l0 -360 38 0 c30 0 90 31 315 161 l277 162 0 36 -1 36 -279 163 c-218 127 -287 162 -314 162 l-36 0 0 -360z"></path>








             <path id="pDC1um4jz" d="M355 9890 c-262 -154 -270 -159 -273 -192 l-3 -33 279 -162 c200 -117 288 -163 311 -163 l31 0 0 355 0 355 -37 -1 c-30 0 -93 -33 -308 -159z"></path>
             <path id="p5vJAWiA4" d="M740 9695 l0 -355 34 0 c27 0 99 38 311 162 l276 162 -3 35 c-3 35 -5 37 -273 193 -219 128 -277 158 -307 158 l-38 0 0 -355z"></path>
             <path id="pAIEDYVqE" d="M1803 9893 l-272 -158 -1 -36 0 -36 277 -162 c216 -127 282 -161 306 -159 l29 3 2 353 1 352 -35 0 c-27 0 -97 -36 -307 -157z"></path>
             <path id="p14xujPg9v" d="M3245 9891 c-263 -155 -270 -160 -273 -192 l-3 -34 279 -162 c202 -118 287 -163 310 -163 l32 0 0 355 0 355 -37 0 c-30 -1 -92 -33 -308 -159z"></path>
             <path id="pi4TAsMh1" d="M3630 9695 l0 -355 33 0 c25 0 103 40 308 160 l274 161 0 36 0 36 -270 158 c-219 129 -277 159 -307 159 l-38 0 0 -355z"></path>
             <path id="pY8KDfzYi" d="M4688 9892 l-267 -157 -1 -36 0 -37 275 -161 c189 -111 284 -161 305 -161 l30 0 0 355 0 355 -37 -1 c-30 -1 -95 -34 -305 -157z"></path>











             <path id="pWf4WfL3c" d="M30 9253 c0 -164 3 -315 6 -335 6 -35 9 -38 38 -38 17 0 42 9 56 20 14 11 33 20 42 20 9 0 28 10 41 23 27 26 62 47 78 47 7 0 28 12 47 28 37 28 70 48 136 81 22 11 64 34 93 53 45 28 53 38 53 63 0 20 -7 34 -20 40 -10 6 -128 74 -260 153 -184 108 -250 142 -276 142 l-34 0 0 -297z"></path>
             <path id="pwi4kmGob" d="M1179 9452 c-91 -53 -177 -107 -192 -118 -14 -12 -41 -27 -59 -34 -52 -21 -88 -59 -88 -94 0 -33 4 -36 110 -94 25 -13 47 -28 50 -32 3 -4 83 -53 178 -109 113 -65 184 -101 203 -101 l29 0 0 340 0 340 -32 0 c-23 0 -82 -29 -199 -98z"></path>
             <path id="pcrOps109" d="M1480 9209 l0 -340 33 3 c19 2 133 62 289 153 l258 150 0 36 0 36 -258 151 c-186 110 -267 152 -290 152 l-32 0 0 -341z"></path>
             <path id="pmCh5BGF0" d="M2528 9397 l-258 -152 0 -35 1 -35 262 -152 c190 -111 272 -153 295 -153 l32 0 0 340 0 340 -37 -1 c-30 0 -92 -32 -295 -152z"></path>
             <path id="p15pLaQ6Id" d="M2920 9211 l0 -341 33 0 c23 0 103 42 292 154 255 149 260 153 263 187 l2 34 -257 150 c-185 107 -269 151 -295 153 l-38 3 0 -340z"></path>
             <path id="pjQpn0Osa" d="M4369 9528 c0 -13 -1 -165 -2 -338 l-1 -315 35 0 c26 0 95 36 291 150 l257 150 1 36 0 36 -259 151 c-271 159 -320 178 -322 130z"></path>










             <path id="p1BoZ8O70w" d="M2200 8750 l0 -330 34 0 c27 0 94 35 285 146 l251 147 0 37 0 37 -250 146 c-193 114 -258 147 -285 147 l-35 0 0 -330z"></path>
             <path id="pzJqFkBJC" d="M3640 8750 l1 -330 36 0 c28 0 90 31 289 148 l254 147 0 35 0 35 -254 148 c-201 117 -260 147 -289 147 l-37 0 0 -330z"></path>
             <path id="plo9Sm6uN" d="M4702 8933 l-252 -147 0 -36 0 -36 252 -147 c188 -110 260 -147 285 -147 l33 0 0 330 0 330 -33 0 c-24 0 -99 -39 -285 -147z"></path>








             <path id="p1ECMheNQr" d="M589 9057 c-14 -7 -33 -18 -42 -25 -8 -7 -39 -26 -69 -41 -93 -49 -222 -123 -238 -136 -8 -6 -23 -15 -32 -18 -9 -3 -35 -17 -57 -32 -35 -21 -41 -30 -41 -58 1 -31 7 -35 255 -179 197 -114 263 -148 290 -148 l35 0 0 213 c0 116 -3 263 -7 325 l-6 112 -31 -1 c-17 0 -43 -6 -57 -12z"></path>
             <path id="pLHY2nErw" d="M767 9063 c-4 -3 -7 -150 -7 -325 l0 -318 32 0 c23 0 102 41 285 148 l253 147 0 35 c0 34 -3 36 -134 113 -73 42 -136 77 -140 77 -4 0 -31 15 -59 33 -29 18 -70 42 -92 53 -22 10 -44 25 -48 32 -8 12 -79 17 -90 5z"></path>
             <path id="piQvCVEAu" d="M40 8265 l0 -315 38 0 c29 1 86 30 272 139 230 136 235 140 238 174 l3 35 -242 141 c-181 106 -250 141 -275 141 l-34 0 0 -315z"></path>
             <path id="pSXcNU5lA" d="M1490 8265 l0 -315 33 0 c23 0 97 38 267 138 l235 137 0 39 0 39 -235 138 c-169 99 -244 138 -267 139 l-33 0 0 -315z"></path>
             <path id="p4x22IBwN" d="M2540 8440 l-235 -139 0 -37 0 -36 235 -139 c187 -110 243 -138 273 -139 l37 0 0 315 0 315 -37 -1 c-30 0 -88 -30 -273 -139z"></path>
             <path id="pcdZRhctr" d="M2930 8265 l0 -315 35 0 c26 0 90 33 272 139 232 136 238 140 241 174 l3 34 -242 141 c-180 106 -251 142 -276 142 l-33 0 0 -315z"></path>
             <path id="pmGKVMSLn" d="M3985 8440 c-232 -136 -240 -142 -243 -174 l-3 -33 242 -141 c180 -106 251 -142 276 -142 l33 0 0 315 0 315 -32 0 c-24 0 -99 -39 -273 -140z"></path>
             <path id="pVXTM4tx9" d="M4380 8318 c0 -145 -3 -287 -6 -315 l-7 -53 39 0 c32 0 82 25 274 138 l235 138 0 38 0 38 -235 139 c-168 98 -244 138 -267 138 l-33 1 0 -262z"></path>










             <path id="pke3ZZD7O" d="M372 7972 l-233 -137 3 -33 c3 -33 11 -38 232 -168 186 -109 236 -134 268 -134 l38 0 0 305 0 305 -37 -1 c-30 0 -89 -30 -271 -137z"></path>
             <path id="p15q47q5oh" d="M770 7805 l0 -305 35 0 c28 0 89 31 265 133 l229 132 1 36 0 37 -234 136 c-165 96 -242 136 -265 136 l-31 0 0 -305z"></path>
             <path id="p6yHaUdGZ" d="M1823 7974 l-233 -136 0 -36 1 -37 229 -132 c177 -103 237 -133 264 -133 l36 0 0 305 0 305 -32 0 c-24 0 -97 -38 -265 -136z"></path>
             <path id="pjG3U4t1M" d="M2210 7800 l0 -310 30 0 c20 0 106 45 267 139 230 135 238 141 241 173 l2 33 -236 138 c-178 104 -244 137 -270 137 l-34 0 0 -310z"></path>
             <path id="p3Zih0Jr7" d="M3660 7805 l0 -305 38 1 c29 0 85 28 262 132 221 130 225 133 228 168 l3 35 -234 137 c-166 97 -244 137 -266 137 l-31 0 0 -305z"></path>










             <path id="pvjqtWYBg" d="M4715 7976 l-230 -134 -3 -39 -2 -38 229 -132 c179 -104 236 -133 265 -133 l36 0 0 305 0 305 -33 0 c-24 0 -94 -35 -262 -134z"></path>
             <path id="proI7cSan" d="M50 7320 l0 -290 39 0 c32 0 79 23 255 127 l217 127 -3 35 c-3 34 -7 37 -221 163 -165 96 -227 128 -253 128 l-34 0 0 -290z"></path>
             <path id="p25ZsOWX2" d="M1103 7479 c-297 -174 -297 -151 -4 -321 171 -101 225 -128 254 -128 l37 0 0 290 0 290 -32 0 c-24 0 -95 -37 -255 -131z"></path>
             <path id="pyEPhfsmb" d="M2548 7482 l-217 -127 -1 -36 0 -36 216 -127 c177 -103 223 -126 255 -126 l39 0 0 290 0 290 -37 -1 c-30 0 -87 -29 -255 -127z"></path>
             <path id="pNAAmu0AL" d="M2940 7320 l0 -290 38 0 c30 0 80 25 255 127 l218 127 -3 35 c-3 34 -8 37 -222 163 -162 95 -228 128 -253 128 l-33 0 0 -290z"></path>
             <path id="peLEIF8cB" d="M4390 7320 l0 -290 35 0 c27 0 87 30 255 128 294 170 294 146 -5 321 -153 89 -234 131 -255 131 l-30 0 0 -290z"></path>










             <path id="ptmxklT37" d="M780 6855 l0 -285 30 0 c21 0 98 39 243 124 l212 124 0 37 0 38 -210 123 c-151 89 -219 124 -242 124 l-33 0 0 -285z"></path>
             <path id="pDzyj5tFJ" d="M1835 7017 l-210 -123 0 -38 0 -39 210 -123 c149 -88 219 -123 243 -124 l32 0 0 285 0 285 -32 0 c-24 0 -93 -35 -243 -123z"></path>
             <path id="p18GkNXCtg" d="M2220 6855 l0 -285 33 0 c25 0 90 33 250 127 290 171 290 148 1 317 -161 93 -225 126 -250 126 l-34 0 0 -285z"></path>
             <path id="pp21ceeH0" d="M3273 7014 c-287 -170 -287 -148 4 -318 170 -99 224 -126 248 -124 l30 3 0 280 0 280 -35 2 c-29 2 -72 -20 -247 -123z"></path>
             <path id="pzYBakun2" d="M3670 6855 l0 -285 30 0 c21 0 98 39 246 126 l215 127 -3 35 c-3 34 -8 37 -213 158 -149 88 -219 123 -242 124 l-33 0 0 -285z"></path>
             <path id="pWStNAwVx" d="M4718 7013 c-290 -169 -290 -146 0 -315 156 -91 228 -128 250 -128 l32 0 0 285 0 285 -32 0 c-24 0 -94 -36 -250 -127z"></path>










             <path id="pL9YYvQDj" d="M60 6370 l0 -270 34 0 c25 0 78 25 198 96 234 137 228 133 228 174 -1 40 11 31 -244 182 -108 64 -157 88 -182 88 l-34 0 0 -270z"></path>
             <path id="p16KvgOsMh" d="M1510 6370 l0 -270 31 0 c21 0 92 36 230 116 l199 117 0 37 0 37 -199 117 c-138 80 -209 116 -230 116 l-31 0 0 -270z"></path>
             <path id="pbCapVFLW" d="M2558 6522 c-197 -116 -198 -117 -198 -152 0 -35 0 -35 201 -152 151 -89 209 -118 235 -118 l34 0 -2 268 -3 267 -35 2 c-29 2 -71 -19 -232 -115z"></path>
             <path id="p12VTgV9HV" d="M4003 6522 c-202 -117 -202 -117 -202 -152 l0 -35 203 -117 c142 -83 213 -118 235 -118 l31 0 0 270 0 270 -32 0 c-24 0 -92 -35 -235 -118z"></path>
             <path d="M4400 6370 l0 -270 30 0 c20 0 95 38 230 117 l200 116 0 37 0 37 -200 116 c-135 79 -210 117 -230 117 l-30 0 0 -270z" id="poxpaUSoc"></path>








             <path id="py1QHFhPA" d="M395 6056 c-185 -109 -190 -113 -193 -147 l-2 -34 193 -112 c151 -88 202 -113 230 -113 l37 0 0 260 0 260 -37 -1 c-29 -1 -82 -27 -228 -113z"></path>
             <path id="p4YWfefjo" d="M790 5910 l0 -260 34 0 c26 0 83 28 225 112 l191 111 0 36 -1 36 -193 113 c-134 78 -203 112 -225 112 l-31 0 0 -260z"></path>
             <path id="pFEqVUq4x" d="M1843 6057 l-193 -112 0 -36 0 -37 191 -111 c141 -82 200 -111 225 -111 l34 0 0 260 0 260 -32 0 c-24 0 -89 -33 -225 -113z"></path>
             <path id="p2x2gwuj0" d="M3285 6057 c-185 -110 -190 -113 -193 -147 l-2 -35 193 -112 c137 -80 202 -113 225 -113 l32 0 0 260 0 260 -32 -1 c-23 0 -91 -35 -223 -112z"></path>
             <path id="pWykSyIni" d="M3680 5910 l0 -260 34 0 c25 0 83 29 225 112 l191 112 0 36 c-1 35 -1 35 -195 148 -132 76 -203 112 -224 112 l-31 0 0 -260z"></path>







             <path id="pvCMZbPXU" d="M77 5663 c-4 -3 -7 -114 -7 -245 l0 -238 37 0 c28 0 77 24 214 103 l178 102 1 37 0 36 -182 106 c-167 98 -221 120 -241 99z"></path>
             <path id="pgcpD0tuz" d="M1122 5562 l-183 -107 3 -34 c3 -32 10 -38 178 -137 136 -80 183 -103 213 -103 l37 -1 0 245 0 245 -32 0 c-24 0 -86 -31 -216 -108z"></path>
             <path id="p13arTgjY9" d="M1520 5446 c0 -123 3 -231 6 -240 7 -19 54 -21 87 -4 38 19 43 22 85 51 23 15 48 27 56 27 7 0 19 7 26 15 7 8 17 15 22 15 5 0 41 19 79 41 62 37 69 44 69 73 0 30 -8 35 -184 139 -127 73 -194 107 -215 107 l-31 0 0 -224z"></path>
             <path id="pOL75yoJK" d="M2595 5579 c-82 -50 -162 -98 -177 -107 -21 -13 -28 -25 -28 -47 0 -32 17 -47 119 -102 25 -14 53 -31 61 -38 49 -41 178 -105 210 -105 l36 0 -2 243 -2 242 -33 2 c-27 2 -66 -17 -184 -88z"></path>
             <path id="pNo87Py1u" d="M2960 5425 l0 -245 38 0 c29 0 75 23 212 103 172 101 175 103 178 138 l3 36 -183 107 c-130 75 -192 106 -215 106 l-33 0 0 -245z"></path>
             <path id="pdFzETzA3" d="M4410 5425 l0 -245 34 0 c25 0 81 28 215 106 174 102 181 107 181 137 0 31 -7 36 -185 140 -124 72 -194 107 -215 107 l-30 0 0 -245z"></path>











             <path id="p1EygcR9FO" d="M1985 5170 c-22 -16 -45 -29 -51 -30 -6 0 -23 -9 -36 -20 -31 -24 -96 -61 -165 -95 -50 -23 -53 -27 -53 -63 0 -35 4 -40 43 -60 23 -13 98 -56 167 -97 96 -58 133 -75 162 -75 l38 0 0 235 0 235 -32 0 c-20 -1 -49 -12 -73 -30z"></path>
             <path id="pELXrAd6m" d="M2247 5194 c-3 -4 -6 -109 -7 -235 l0 -229 39 0 c32 0 72 19 208 98 164 96 168 99 171 134 3 33 0 37 -35 51 -21 8 -53 27 -72 41 -19 14 -40 26 -46 26 -7 0 -30 13 -51 28 -21 15 -53 34 -71 41 -17 7 -39 21 -49 32 -16 18 -73 27 -87 13z"></path>
             <path id="p1I0qajRN" d="M3690 4965 l0 -235 36 0 c28 0 76 23 205 98 168 96 169 97 169 132 0 36 0 36 -175 138 -117 68 -184 102 -205 102 l-30 0 0 -235z"></path>
             <path id="p14cxNtCqZ" d="M4743 5099 l-173 -101 0 -37 0 -36 167 -97 c132 -77 175 -98 205 -98 l38 0 0 235 -1 235 -32 0 c-22 0 -84 -31 -204 -101z"></path>








             <path id="pBbfJBZju" d="M87 4693 c-4 -3 -7 -102 -7 -220 l0 -213 43 0 c35 1 68 16 192 90 l150 88 0 38 0 37 -158 94 c-147 86 -200 107 -220 86z"></path>
             <path id="p1AR5dyBzi" d="M1133 4604 c-157 -93 -163 -97 -163 -129 0 -31 6 -35 165 -128 110 -65 174 -97 195 -97 l30 0 0 225 0 225 -32 0 c-23 0 -81 -29 -195 -96z"></path>
             <path id="p15INz5Ehk" d="M1530 4475 l0 -225 30 0 c21 0 84 32 195 97 158 93 165 99 165 129 0 30 -7 36 -164 128 -111 65 -174 96 -195 96 l-31 0 0 -225z"></path>
             <path id="piKQoX66T" d="M2977 4693 c-4 -3 -7 -102 -7 -220 l0 -213 43 1 c35 0 68 16 192 89 145 85 150 89 153 123 l3 36 -161 95 c-150 89 -203 110 -223 89z"></path>
             <path id="p1FjzfTr0m" d="M4025 4606 c-154 -90 -160 -95 -163 -129 l-3 -34 165 -97 c111 -65 174 -96 195 -96 l31 0 0 225 0 225 -32 0 c-23 0 -81 -29 -193 -94z"></path>








             <path id="p1E70taukB" d="M415 4139 c-142 -84 -150 -91 -153 -123 -3 -31 1 -35 57 -69 32 -19 70 -38 83 -42 12 -4 31 -16 41 -26 10 -11 24 -19 31 -19 7 0 30 -13 52 -30 24 -18 51 -30 72 -30 l32 0 0 215 0 215 -32 -1 c-22 -1 -82 -30 -183 -90z"></path>
             <path id="p1HVXzrqjo" d="M3305 4139 c-149 -88 -150 -89 -150 -125 0 -36 1 -36 150 -124 103 -61 160 -89 183 -89 l32 -1 0 215 0 215 -32 -1 c-23 0 -81 -29 -183 -90z"></path>






             <path id="p15OWJE7wa" d="M810 4010 l0 -210 33 0 c22 0 77 27 182 88 l150 87 0 39 0 38 -143 84 c-114 67 -151 84 -182 84 l-40 0 0 -210z"></path>
             <path id="p1FiUj89WU" d="M2260 4010 l0 -210 29 0 c18 0 86 34 185 91 150 88 156 93 156 123 0 31 -6 36 -148 119 -114 67 -157 87 -185 87 l-37 0 0 -210z"></path>
             <path id="pYNdAQdVy" d="M4745 4136 l-140 -82 -3 -40 -2 -39 147 -85 c109 -62 157 -85 183 -85 l35 0 3 208 2 207 -42 -1 c-35 0 -68 -15 -183 -83z"></path>



             <path id="pT2Gv3sPI" d="M97 3723 c-2 -5 -2 -95 1 -200 l4 -193 30 0 c18 0 80 30 169 81 139 81 139 81 139 118 0 36 -1 36 -142 119 -129 75 -189 97 -201 75z"></path>
             <path id="p1Ew7JjMgZ" d="M1143 3647 c-140 -81 -142 -83 -143 -117 0 -35 2 -36 141 -118 101 -59 151 -82 175 -82 l34 0 0 200 0 200 -32 0 c-23 -1 -78 -27 -175 -83z"></path>
             <path id="pbcHt8UPi" d="M1540 3530 l0 -200 34 0 c24 0 74 23 175 83 141 82 141 82 139 116 -3 33 -9 38 -143 117 -96 57 -150 83 -172 84 l-33 0 0 -200z"></path>
             <path id="p135wu7MjB" d="M4033 3647 c-140 -81 -142 -83 -143 -117 0 -35 2 -36 141 -118 102 -60 150 -82 175 -82 l34 0 0 200 0 200 -32 0 c-23 0 -78 -27 -175 -83z"></path>
             <path id="p1Hpnwj5nr" d="M4430 3530 l0 -200 32 0 c21 0 78 27 174 83 138 79 144 83 144 114 0 31 -6 36 -144 118 -97 57 -154 85 -175 85 l-31 0 0 -200z"></path>






             <path id="pthrAkVcL" d="M2980 3525 l0 -195 35 0 c26 0 72 21 175 81 139 82 140 82 140 118 0 36 -2 37 -134 114 -108 62 -141 77 -175 77 l-41 0 0 -195z"></path>
             <path id="p1FBOLflT" d="M9803 3642 c-131 -76 -132 -77 -133 -113 0 -36 1 -36 140 -118 103 -60 149 -81 175 -81 l35 0 0 195 0 195 -42 0 c-35 0 -67 -15 -175 -78z"></path>


             <path id="pYss7gBc7" d="M418 3175 c-123 -72 -128 -77 -128 -108 0 -32 5 -36 132 -110 92 -53 143 -77 165 -77 l33 0 0 185 0 185 -37 0 c-29 0 -68 -18 -165 -75z"></path>
             <path id="pYQGw14uW" d="M1862 3176 l-122 -71 2 -39 c3 -38 5 -39 128 -112 94 -55 134 -73 163 -74 l37 0 0 185 0 185 -42 -1 c-34 -1 -69 -16 -166 -73z"></path>
             <path id="p1H6iL0Go7" d="M2270 3065 l0 -185 33 0 c22 0 73 24 165 78 132 76 133 77 130 111 -3 31 -11 38 -128 107 -94 55 -134 73 -162 74 l-38 0 0 -185z"></path>
             <path id="pd7zaoqyh" d="M3710 3065 l0 -185 34 0 c25 0 72 22 165 76 130 76 131 76 131 113 -1 36 -2 37 -128 109 -95 53 -138 72 -165 72 l-37 0 0 -185z"></path>







             <path id="p1C8lt8Oof" d="M110 2585 l0 -175 34 0 c24 0 69 20 150 67 114 67 116 68 116 104 0 36 -1 37 -121 108 -74 43 -133 71 -150 71 l-29 0 0 -175z"></path>
             <path id="p1DoERpWTL" d="M1153 2687 c-120 -70 -123 -73 -123 -107 1 -34 3 -37 119 -102 86 -50 128 -68 155 -68 l36 0 0 175 0 175 -32 0 c-23 0 -72 -23 -155 -73z"></path>
             <path id="pLG5fNzFA" d="M2592 2686 c-120 -70 -122 -71 -120 -105 3 -32 10 -38 121 -102 84 -49 128 -69 152 -69 l35 0 0 175 0 175 -32 -1 c-21 -1 -77 -26 -156 -73z"></path>
             <path id="p12Kyusm06" d="M4440 2585 l0 -175 38 0 c28 0 65 17 152 68 108 65 115 71 118 103 2 34 1 35 -122 107 -81 46 -136 72 -156 72 l-30 0 0 -175z"></path>







             <path id="p1BNpb5UU6" d="M830 2120 l0 -160 39 0 c30 0 64 15 145 62 103 61 106 63 106 98 0 35 -3 37 -106 98 -81 47 -115 62 -145 62 l-39 0 0 -160z"></path>
             <path id="pr0eVKg9h" d="M1873 2217 c-100 -59 -103 -62 -103 -97 0 -35 3 -37 105 -98 79 -46 115 -62 143 -62 l37 0 0 160 0 160 -40 -1 c-30 -1 -65 -16 -142 -62z"></path>
             <path id="p1Djti2W1C" d="M3318 2217 c-104 -60 -108 -63 -108 -97 0 -34 3 -37 109 -97 78 -46 118 -63 145 -63 l36 0 0 160 0 160 -37 0 c-28 0 -67 -17 -145 -63z"></path>
             <path id="pEh0DGtEW" d="M3720 2120 l0 -160 39 0 c29 0 64 15 145 63 103 60 106 63 106 97 0 35 -3 37 -108 98 -79 45 -118 62 -145 62 l-37 0 0 -160z"></path>
             <path id="pAcrWee1O" d="M4763 2218 c-101 -60 -103 -61 -103 -98 0 -36 2 -38 105 -98 75 -44 114 -62 140 -62 l35 0 0 160 0 160 -37 -1 c-27 -1 -67 -18 -140 -61z"></path>







             <path id="pBAdA4oAo" d="M120 1635 l0 -155 29 0 c17 0 72 25 135 61 99 58 106 64 106 93 0 29 -7 35 -106 94 -64 37 -118 62 -135 62 l-29 0 0 -155z"></path>
             <path id="p195oA21ph" d="M1560 1635 l0 -155 33 0 c21 0 66 20 135 60 97 58 102 62 102 94 0 32 -5 36 -105 95 -65 38 -116 61 -135 61 l-30 0 0 -155z"></path>
             <path id="p1AUD5Kq2M" d="M2603 1727 c-96 -57 -103 -63 -103 -93 0 -30 7 -36 105 -93 65 -38 116 -61 135 -61 l30 0 0 155 0 155 -32 -1 c-21 -1 -70 -23 -135 -62z"></path>




             <path id="pKKp4TDX0" d="M4043 1724 c-88 -52 -93 -57 -93 -89 0 -32 5 -37 100 -94 72 -43 111 -61 135 -61 l35 0 0 150 0 150 -42 0 c-34 -1 -63 -13 -135 -56z"></path>




             <path id="py5sWyM55" d="M1883 1259 c-80 -48 -83 -51 -83 -87 0 -36 3 -38 92 -89 51 -30 103 -53 119 -53 l29 0 0 140 0 140 -37 -1 c-27 -1 -63 -16 -120 -50z"></path>
             <path></path>
             <path id="pKm8FF9WJ"></path>









             <path id="p2NjpFQlo" d="M485 1281 c-16 -9 -48 -29 -70 -44 -22 -15 -45 -27 -52 -27 -8 0 -13 -13 -12 -32 0 -29 7 -38 58 -70 33 -21 64 -38 70 -38 6 0 11 -4 11 -8 0 -14 48 -32 82 -32 l31 0 -7 77 c-3 42 -6 102 -6 135 l0 58 -37 -1 c-21 -1 -51 -9 -68 -18z"></path>
             <path id="pjcloc1wB" d="M848 1205 c-4 -187 -7 -170 28 -173 29 -3 104 31 104 47 0 4 25 18 55 31 52 23 55 26 55 61 0 35 -3 38 -55 64 -30 14 -55 30 -55 35 0 12 -58 30 -96 30 l-34 0 -2 -95z"></path>
             <path id="pmNlaHnBK" d="M130 690 l0 -130 34 0 c23 0 61 16 115 48 73 43 81 50 81 78 0 29 -7 36 -86 83 -51 30 -97 51 -115 51 l-29 0 0 -130z"></path>
             <path id="pZ2phj5Ky" d="M2613 769 c-76 -46 -83 -53 -83 -82 0 -30 6 -36 81 -80 54 -31 93 -47 115 -47 l34 0 0 130 0 130 -32 -1 c-21 0 -65 -20 -115 -50z"></path>
             <path id="pfmYjFif0" d="M4460 690 l0 -130 34 0 c23 0 62 16 115 47 75 44 81 50 81 79 0 30 -7 37 -84 83 -53 32 -95 51 -115 51 l-31 0 0 -130z"></path>





             <path id="p4U1qlX5M" d="M1570 685 l0 -125 35 0 c24 0 62 15 116 47 78 45 80 47 77 81 -3 32 -9 39 -76 79 -53 31 -85 43 -113 43 l-39 0 0 -125z"></path>



             <path id="pYL3WvYD6" d="M448 298 c-62 -37 -68 -43 -68 -73 0 -31 6 -37 71 -74 45 -26 83 -41 105 -41 l34 0 0 115 0 115 -37 0 c-26 -1 -59 -14 -105 -42z"></path>
             <path id="pLpNnqQAp" d="M2300 225 l0 -115 34 0 c21 0 60 15 105 41 65 38 71 44 71 74 0 30 -6 36 -69 74 -47 27 -81 41 -105 41 l-36 0 0 -115z"></path>
             <path id="pQ6XtC9NB" d="M3740 225 l0 -115 36 0 c24 0 59 14 105 41 68 39 70 42 67 77 -3 33 -9 39 -68 74 -43 25 -78 38 -102 38 l-38 0 0 -115z"></path>
             <path id="pAV9TfJUL" d="M4778 298 c-61 -37 -68 -44 -68 -72 0 -30 6 -36 73 -74 44 -25 86 -42 105 -42 l32 0 0 115 0 115 -37 -1 c-25 -1 -61 -15 -105 -41z"></path>






         </g>
     </g>

     <g id="l2pXV2WYbSvux9XrSwywvj6" fill="rgb(255,255,255)" style="transform: none;">
         <g style="transform: none;">
             <path id="p19KW4V5px" d="M0 6500 l0 -6500 6500 0 6500 0 0 6500 c0 4327 -3 6500 -10 6500 -6 0 -10 -73 -10 -200 0 -110 -2 -200 -5 -200 -2 0 -158 90 -345 200 -188 110 -346 200 -352 200 -6 0 -161 -88 -343 -195 -183 -107 -339 -197 -348 -201 -16 -6 -17 12 -17 195 0 172 -2 201 -15 201 -13 0 -15 -29 -15 -201 0 -167 -2 -200 -14 -196 -17 7 -288 166 -366 215 -33 20 -60 44 -60 52 0 13 -2 13 -9 1 -8 -12 -12 -12 -25 -2 -9 8 -16 20 -16 27 0 7 -6 11 -14 8 -7 -3 -20 1 -27 9 -8 7 -19 12 -25 10 -7 -2 -18 2 -26 10 -7 8 -24 19 -36 26 -12 7 -20 17 -16 23 4 6 3 8 -4 4 -6 -3 -23 -1 -39 5 -30 11 -97 4 -88 -10 5 -9 -80 -54 -102 -54 -7 0 -10 -4 -7 -8 6 -11 -96 -60 -108 -52 -7 3 -8 1 -4 -5 4 -7 1 -12 -9 -12 -9 0 -31 -13 -48 -30 -27 -25 -347 -220 -362 -220 -3 0 -5 90 -5 200 0 193 -1 200 -20 200 -19 0 -20 -7 -20 -200 0 -110 -2 -200 -4 -200 -2 0 -157 90 -345 200 -188 110 -347 200 -352 200 -6 0 -160 -88 -343 -195 -184 -107 -340 -197 -347 -200 -12 -4 -14 29 -11 195 3 196 2 200 -18 200 -19 0 -20 -5 -20 -200 0 -110 -3 -200 -6 -200 -9 0 -555 320 -589 345 -39 29 -90 55 -108 55 -7 0 -164 -88 -348 -196 -184 -108 -340 -198 -346 -201 -10 -4 -13 39 -13 196 0 194 -1 201 -20 201 -19 0 -20 -8 -22 -200 l-3 -201 -342 201 c-188 110 -347 200 -353 200 -5 0 -164 -90 -353 -200 l-342 -201 -3 201 c-2 192 -3 200 -22 200 -19 0 -20 -7 -20 -201 0 -157 -3 -200 -12 -196 -7 3 -164 93 -348 201 -184 108 -341 196 -350 196 -9 0 -25 -7 -36 -15 -22 -17 -38 -20 -29 -5 3 6 2 10 -2 10 -5 0 -13 -10 -18 -22 -6 -13 -124 -88 -305 -194 -162 -95 -298 -173 -302 -174 -5 0 -8 90 -8 200 0 193 -1 200 -20 200 -19 0 -20 -7 -20 -201 l0 -201 -47 27 c-27 16 -181 106 -345 201 -163 96 -301 174 -307 174 -6 0 -165 -90 -352 -200 -187 -110 -343 -200 -345 -200 -2 0 -4 90 -4 200 0 193 -1 200 -20 200 -19 0 -20 -7 -20 -201 0 -110 -4 -199 -8 -197 -45 17 -321 186 -322 196 0 7 -5 10 -10 7 -14 -8 -63 23 -55 35 3 5 0 12 -6 16 -8 4 -9 3 -5 -4 11 -18 -8 -14 -30 6 -10 9 -23 17 -29 17 -16 1 -85 46 -85 57 0 5 -5 6 -10 3 -6 -4 -35 10 -65 30 -52 36 -55 37 -117 29 -34 -4 -55 -9 -46 -12 15 -3 14 -7 -10 -26 -15 -13 -44 -29 -64 -37 -21 -7 -38 -17 -38 -21 0 -4 -23 -19 -52 -33 -40 -19 -54 -22 -60 -13 -6 9 -8 7 -6 -7 2 -14 -8 -24 -37 -38 -22 -11 -49 -27 -60 -37 -20 -18 -252 -156 -280 -166 -13 -5 -15 18 -15 195 0 172 -2 201 -15 201 -13 0 -15 -29 -15 -201 0 -172 -2 -200 -14 -196 -8 3 -165 94 -349 201 -184 108 -339 196 -345 196 -5 0 -163 -90 -352 -200 -188 -110 -343 -200 -346 -200 -2 0 -4 90 -4 200 0 127 -4 200 -10 200 -7 0 -10 -2173 -10 -6500z m1122 6218 c164 -95 297 -175 298 -178 0 -5 -566 -340 -647 -383 l-33 -17 0 400 0 401 43 -25 c23 -14 176 -103 339 -198z m2948 -36 c118 -68 221 -130 227 -136 11 -10 -205 -143 -609 -374 l-58 -33 0 400 0 400 113 -66 c61 -36 209 -122 327 -191z m2408 -342 l-3 -199 -337 197 c-185 108 -333 200 -329 205 4 4 156 94 337 200 l329 193 3 -198 c1 -109 1 -288 0 -398z m442 365 c140 -81 260 -153 267 -159 11 -10 -49 -48 -618 -379 l-49 -29 0 401 0 401 73 -43 c39 -24 187 -110 327 -192z m2448 -365 l-3 -200 -337 198 c-186 108 -338 199 -337 202 0 3 152 93 337 201 l337 195 3 -198 c1 -109 1 -288 0 -398z m714 202 c5 -6 -249 -158 -624 -375 l-48 -27 0 399 0 399 333 -194 c182 -107 335 -198 339 -202z m2176 -202 l-3 -200 -337 197 c-186 109 -338 200 -338 203 1 3 153 93 338 201 l337 196 3 -198 c1 -110 1 -289 0 -399z m630 253 l94 -55 -329 -192 c-181 -106 -334 -196 -341 -200 -9 -5 -12 83 -12 393 l0 399 248 -145 c136 -80 289 -170 340 -200z m-12188 -59 l0 -395 -42 25 c-24 14 -176 103 -340 198 -163 95 -293 176 -290 180 11 10 656 388 665 388 4 0 7 -178 7 -396z m2890 1 l0 -395 -48 27 c-377 218 -629 369 -624 375 11 11 656 388 665 388 4 0 7 -178 7 -395z m1834 200 c179 -104 326 -193 326 -196 0 -6 -645 -387 -671 -397 -5 -2 -9 175 -9 393 0 338 2 396 14 393 8 -2 161 -88 340 -193z m2500 149 c9 -71 7 -746 -3 -742 -26 10 -671 391 -671 397 0 6 649 389 661 390 4 1 9 -20 13 -45z m72 35 c3 -6 18 -16 33 -22 53 -23 611 -352 608 -359 -2 -7 -664 -398 -673 -398 -2 0 -4 160 -4 355 0 306 2 356 15 361 8 4 12 11 9 16 -4 6 0 14 7 19 11 7 10 9 -3 9 -10 0 -18 7 -18 15 0 17 16 20 26 4z m2816 -381 c-1 -216 -6 -392 -10 -391 -16 3 -657 383 -659 390 -2 5 55 42 125 83 238 140 367 213 414 236 25 13 49 28 53 33 3 6 13 7 22 4 10 -4 14 -2 9 5 -6 10 19 31 39 32 7 0 9 -136 7 -392z m-8669 285 c10 -141 8 -685 -1 -681 -25 10 -672 393 -672 398 1 11 289 170 309 170 12 0 19 4 16 10 -3 6 1 10 9 10 8 0 19 6 23 14 4 7 49 35 98 60 50 26 99 56 111 67 11 10 28 19 37 19 9 0 19 5 22 11 4 6 14 8 22 5 8 -3 11 -1 8 4 -3 6 -2 10 3 10 5 0 12 -44 15 -97z m98 79 c19 -10 49 -28 67 -40 17 -13 45 -28 62 -33 16 -6 30 -16 30 -23 0 -6 9 -12 19 -13 25 -2 442 -245 438 -256 -1 -5 -146 -92 -322 -195 -176 -103 -326 -191 -332 -195 -10 -7 -13 72 -13 382 0 215 4 391 8 391 4 0 24 -8 43 -18z m2793 -28 c9 -70 7 -736 -3 -732 -24 9 -671 393 -671 397 1 7 573 341 584 341 4 0 19 9 33 20 39 30 50 25 57 -26z m5901 12 c33 -18 59 -38 57 -45 -1 -7 1 -10 6 -7 5 3 35 -8 68 -25 91 -47 464 -263 464 -269 0 -5 -647 -388 -672 -398 -4 -2 -8 143 -8 322 0 304 1 326 18 326 11 0 13 3 6 8 -7 4 -15 33 -19 65 -9 69 -5 70 80 23z m-10572 -646 c174 -101 313 -188 309 -191 -4 -4 -113 -69 -242 -144 -129 -76 -272 -159 -317 -186 l-83 -49 0 381 c0 209 4 379 8 377 5 -1 151 -86 325 -188z m1043 -557 c-7 -7 -635 361 -633 370 1 4 144 91 317 192 l315 184 3 -371 c1 -204 0 -373 -2 -375z m396 560 c254 -148 316 -189 306 -198 -20 -19 -616 -365 -628 -365 -7 0 -10 127 -10 375 0 206 3 375 6 375 4 0 150 -84 326 -187z m1058 -194 l0 -381 -32 20 c-18 11 -161 95 -318 187 -157 92 -288 170 -292 174 -7 6 615 379 635 380 4 1 7 -170 7 -380z m452 156 c141 -82 254 -153 250 -156 -4 -4 -150 -90 -324 -192 l-318 -186 0 380 0 381 68 -39 c37 -21 183 -105 324 -188z m984 -523 c-7 -6 -636 362 -633 371 1 4 144 91 317 193 l315 184 3 -371 c1 -205 0 -374 -2 -377z m395 561 c176 -103 316 -190 311 -195 -14 -14 -623 -368 -633 -368 -5 0 -9 148 -9 375 0 206 3 375 6 375 3 0 149 -84 325 -187z m1059 -194 l0 -381 -22 14 c-13 8 -151 89 -308 181 -157 91 -293 172 -303 179 -16 12 18 34 300 200 175 103 321 187 326 187 4 1 7 -171 7 -380z m405 183 c159 -93 291 -174 292 -178 1 -5 -141 -93 -317 -195 l-320 -187 0 379 0 380 28 -15 c15 -8 157 -91 317 -184z m1425 11 c176 -103 316 -191 312 -195 -13 -13 -624 -368 -633 -368 -5 0 -9 162 -9 375 0 206 2 375 5 375 3 0 149 -84 325 -187z m1060 -188 c0 -245 -3 -375 -10 -375 -11 0 -608 347 -628 365 -10 9 56 52 305 198 175 102 321 186 326 186 4 1 7 -168 7 -374z m388 186 c171 -101 312 -186 312 -190 -1 -6 -622 -371 -634 -371 -3 0 -6 169 -6 376 0 206 3 373 8 371 4 -2 148 -86 320 -186z m1052 -190 l0 -380 -317 186 c-175 102 -321 188 -325 192 -6 5 615 377 635 380 4 1 7 -170 7 -378z m390 192 c176 -103 316 -191 312 -195 -4 -3 -135 -81 -292 -173 -157 -92 -300 -176 -317 -187 l-33 -20 0 381 c0 210 2 381 5 381 3 0 149 -84 325 -187z m1060 -188 c0 -248 -3 -375 -10 -375 -12 0 -608 346 -628 365 -10 9 55 51 305 198 175 103 321 187 326 187 4 0 7 -169 7 -375z m413 171 c158 -93 287 -171 287 -175 -1 -5 -608 -362 -630 -369 -7 -2 -10 129 -10 373 l0 377 33 -19 c17 -11 161 -95 320 -187z m1027 -176 l0 -380 -22 14 c-13 8 -142 84 -288 169 -146 85 -282 165 -303 177 -28 17 -35 25 -25 31 7 4 150 89 318 188 168 98 308 180 313 180 4 1 7 -170 7 -379z m-6504 -275 c-3 -108 -8 -200 -11 -205 -4 -6 -1 -10 4 -10 7 0 11 -57 11 -170 0 -93 -2 -170 -5 -170 -7 0 -609 352 -622 364 -9 8 68 58 305 197 174 103 318 187 320 188 2 1 1 -87 -2 -194z m-5776 -185 c0 -203 -2 -370 -4 -370 -4 0 -132 74 -519 302 l-119 70 314 183 c172 102 316 184 321 185 4 0 7 -166 7 -370z m393 185 c169 -99 307 -182 307 -185 -1 -5 -611 -362 -630 -368 -7 -3 -10 125 -10 368 0 298 3 371 13 368 7 -2 151 -84 320 -183z m1057 -186 c0 -313 -2 -370 -14 -366 -8 3 -135 77 -282 163 -148 87 -286 167 -306 178 -21 12 -38 23 -38 26 0 8 613 368 628 369 9 1 12 -79 12 -370z m381 190 c170 -100 309 -184 309 -188 0 -4 -557 -334 -622 -368 -5 -2 -8 163 -8 366 0 204 3 371 6 371 3 0 145 -81 315 -181z m1059 -189 c0 -203 -2 -370 -4 -370 -4 0 -565 326 -614 357 -23 14 -14 21 290 199 172 101 316 184 321 184 4 0 7 -166 7 -370z m397 182 c167 -97 303 -179 302 -182 0 -5 -610 -361 -630 -368 -5 -2 -9 139 -9 368 0 350 1 372 18 365 9 -3 153 -86 319 -183z m1053 -182 c0 -203 -3 -370 -6 -370 -14 0 -634 365 -631 372 3 10 609 366 625 367 9 1 12 -79 12 -369z m380 189 c170 -100 310 -184 310 -188 0 -6 -591 -355 -620 -366 -13 -5 -15 40 -15 365 0 203 3 370 7 370 4 0 147 -82 318 -181z m1447 -1 c234 -138 309 -186 300 -194 -15 -14 -614 -364 -623 -364 -5 0 -1 268 8 487 2 46 0 83 -4 83 -5 0 -8 38 -8 85 0 47 3 85 7 85 4 0 148 -82 320 -182z m1055 -188 c2 -204 1 -370 -1 -370 -13 0 -631 366 -628 372 2 8 607 367 619 367 4 1 9 -166 10 -369z m385 190 c169 -99 309 -184 310 -188 3 -7 -616 -372 -630 -372 -4 0 -7 167 -7 370 0 223 4 370 9 370 6 0 148 -81 318 -180z m1063 -191 c0 -228 -4 -369 -9 -367 -22 7 -630 363 -630 369 -1 3 18 16 42 29 23 13 163 95 312 182 148 87 273 158 277 158 4 0 8 -167 8 -371z m386 189 c172 -101 309 -186 306 -190 -9 -9 -621 -368 -627 -368 -3 0 -5 167 -4 370 0 204 3 370 6 370 3 0 147 -82 319 -182z m1447 -2 c169 -99 307 -182 307 -185 -1 -7 -624 -371 -634 -371 -3 0 -6 167 -6 371 0 299 2 370 13 367 7 -2 151 -84 320 -182z m1057 -187 c0 -240 -3 -369 -10 -367 -20 6 -629 363 -630 368 0 7 621 370 632 370 4 0 8 -167 8 -371z m385 189 c172 -101 310 -186 307 -190 -8 -8 -622 -368 -628 -368 -2 0 -4 167 -4 370 0 204 3 370 6 370 4 0 147 -82 319 -182z m-12293 -489 c161 -95 296 -175 301 -179 5 -5 -472 -292 -596 -357 -4 -2 -7 156 -7 351 0 196 2 356 4 356 3 0 137 -77 298 -171z m1056 -357 l-3 -180 -293 172 c-161 94 -293 176 -294 181 0 6 132 88 293 182 l294 173 3 -175 c1 -95 1 -254 0 -353z m391 355 c162 -95 294 -176 293 -181 0 -8 -584 -356 -597 -356 -3 0 -5 160 -5 355 0 195 3 355 8 355 4 0 139 -78 301 -173z m1061 -182 c0 -195 -2 -355 -3 -355 -13 0 -598 350 -597 357 2 8 578 351 593 352 4 1 7 -159 7 -354z m1440 0 l0 -356 -47 28 c-299 172 -548 322 -548 329 1 7 581 353 593 354 1 0 2 -160 2 -355z m390 181 c157 -92 289 -171 293 -175 7 -7 -581 -361 -598 -361 -3 0 -5 160 -5 356 0 281 3 355 13 351 6 -2 140 -80 297 -171z m1060 -181 c0 -195 -2 -355 -4 -355 -3 0 -141 80 -307 177 -283 166 -300 178 -281 191 46 30 577 341 585 341 4 1 7 -159 7 -354z m393 175 c163 -95 296 -174 295 -176 -2 -2 -272 -160 -565 -331 l-43 -25 0 357 c0 196 3 354 8 352 4 -2 141 -82 305 -177z m1047 -175 l0 -356 -24 13 c-94 52 -584 343 -581 346 8 8 590 350 598 351 4 1 7 -159 7 -354z m383 184 c161 -94 296 -174 300 -178 6 -6 -549 -341 -595 -359 -4 -2 -8 156 -8 352 0 196 2 356 5 356 3 0 137 -77 298 -171z m1067 -184 c0 -195 -3 -355 -6 -355 -3 0 -80 44 -172 98 -92 55 -227 134 -300 177 -73 43 -130 81 -125 85 12 12 587 349 596 350 4 0 7 -160 7 -355z m1440 -1 l0 -356 -32 19 c-361 210 -576 338 -573 342 9 8 590 349 598 350 4 1 7 -159 7 -355z m390 180 c166 -97 299 -179 296 -181 -6 -6 -598 -353 -602 -353 -2 0 -4 160 -4 355 0 195 2 355 5 355 3 0 140 -79 305 -176z m1055 -179 c0 -233 -3 -354 -10 -351 -33 14 -587 344 -589 351 -1 7 580 355 594 355 3 0 5 -160 5 -355z m434 153 c135 -79 244 -147 244 -152 -1 -8 -97 -66 -550 -332 l-43 -25 0 356 0 356 53 -30 c28 -16 162 -94 296 -173z m1011 -153 l0 -356 -22 12 c-39 20 -573 332 -581 339 -4 4 106 73 245 155 139 81 273 160 298 176 25 15 48 28 53 28 4 1 7 -159 7 -354z m-11882 -292 c156 -91 280 -169 275 -174 -14 -14 -574 -339 -583 -339 -6 0 -10 133 -10 346 0 326 1 346 18 339 9 -3 144 -81 300 -172z m1052 -168 c0 -261 -3 -345 -12 -345 -7 0 -41 20 -77 44 -37 24 -104 64 -151 89 -128 67 -352 201 -354 210 -1 10 562 344 582 346 9 1 12 -74 12 -344z m383 174 c161 -94 293 -172 295 -173 3 -3 -583 -346 -591 -346 -4 0 -7 155 -7 345 0 190 2 345 5 345 3 0 137 -77 298 -171z m1057 -178 l0 -350 -296 173 c-162 96 -295 177 -295 181 0 7 570 344 584 345 4 0 7 -157 7 -349z m388 178 c161 -95 289 -175 285 -180 -14 -13 -575 -339 -584 -339 -5 0 -9 149 -9 345 0 190 3 345 7 345 4 0 139 -77 301 -171z m1052 -174 c-1 -190 -4 -345 -8 -344 -18 1 -577 336 -575 345 2 8 559 341 576 343 4 1 7 -154 7 -344z m1450 0 c0 -190 -4 -345 -8 -345 -12 0 -584 335 -585 343 -2 7 572 346 586 347 4 0 7 -155 7 -345z m387 173 c162 -94 290 -175 286 -179 -13 -12 -577 -339 -585 -339 -5 0 -8 155 -8 345 0 190 3 345 7 345 3 0 138 -77 300 -172z m1053 -173 c0 -190 -3 -345 -7 -345 -18 1 -576 336 -575 345 1 9 557 343 575 344 4 1 7 -154 7 -344z m387 176 c158 -93 288 -172 287 -177 -1 -8 -371 -230 -493 -295 -51 -27 -55 -28 -68 -11 -13 16 -14 15 -8 -5 3 -12 1 -24 -5 -28 -6 -4 -10 20 -10 72 0 54 3 73 10 63 6 -9 10 -10 10 -3 0 6 -4 15 -10 18 -10 6 -15 535 -6 535 3 0 134 -76 293 -169z m1063 -176 c0 -196 -4 -345 -9 -345 -9 0 -570 326 -584 339 -7 7 567 351 586 351 4 0 7 -155 7 -345z m376 179 c148 -86 277 -162 287 -169 16 -11 -6 -26 -175 -125 -106 -63 -241 -142 -300 -176 l-108 -63 0 350 c0 290 2 350 13 346 8 -3 135 -76 283 -163z m1064 -179 c0 -190 -3 -345 -6 -345 -4 0 -139 77 -301 172 -188 110 -289 175 -281 179 7 4 139 82 293 173 154 91 283 165 288 165 4 1 7 -154 7 -344z m386 176 c159 -93 288 -173 287 -178 -2 -9 -294 -182 -412 -245 -62 -33 -76 -37 -90 -26 -14 12 -15 11 -2 -5 13 -16 13 -20 0 -28 -8 -5 -19 -9 -25 -9 -6 0 -17 -7 -24 -15 -7 -8 -19 -15 -26 -15 -12 0 -14 59 -14 345 0 190 4 345 8 345 5 0 139 -76 298 -169z m1064 -176 c0 -217 -4 -345 -10 -345 -9 0 -568 325 -583 340 -7 6 567 350 585 350 5 0 8 -155 8 -345z m368 184 c152 -89 285 -167 295 -174 15 -11 -21 -35 -276 -184 -161 -94 -296 -171 -300 -171 -4 0 -7 155 -7 345 0 190 2 345 6 345 3 0 130 -73 282 -161z m-12278 -498 c150 -88 277 -164 281 -168 7 -7 -536 -333 -555 -333 -3 0 -6 149 -6 330 0 182 2 330 4 330 2 0 126 -72 276 -159z m1451 -3 c153 -90 279 -166 279 -169 0 -5 -525 -317 -551 -327 -5 -2 -10 145 -11 327 -2 182 -2 331 0 331 2 0 129 -73 283 -162z m1059 -168 c0 -181 -3 -330 -7 -330 -20 0 -561 326 -553 334 12 12 543 324 553 325 4 1 7 -147 7 -329z m1436 -327 c-5 -5 -556 317 -556 325 0 4 125 80 278 169 l277 163 3 -327 c1 -179 1 -328 -2 -330z m398 492 c152 -88 276 -163 276 -166 0 -6 -522 -313 -553 -324 -16 -7 -17 13 -17 325 0 210 4 330 10 328 5 -1 133 -75 284 -163z m1056 -165 c0 -181 -3 -330 -7 -330 -11 0 -563 324 -563 330 1 6 551 329 563 329 4 1 7 -147 7 -329z m1436 -327 c-7 -7 -565 322 -558 329 4 4 131 79 282 168 l275 161 3 -327 c1 -180 0 -329 -2 -331z m1866 477 c137 -80 248 -148 248 -152 0 -6 -545 -328 -556 -328 -2 0 -4 149 -4 331 l0 331 33 -19 c17 -10 143 -84 279 -163z m1028 -150 c0 -181 -3 -330 -6 -330 -3 0 -131 73 -285 163 -266 155 -278 163 -257 177 33 24 532 318 541 319 4 1 7 -147 7 -329z m393 165 c152 -88 276 -162 277 -165 0 -6 -553 -330 -564 -330 -3 0 -6 149 -6 331 0 183 4 329 9 327 4 -1 133 -75 284 -163z m1460 -10 c142 -82 257 -153 257 -156 0 -6 -525 -317 -551 -327 -5 -2 -9 145 -9 327 l0 332 23 -13 c13 -7 139 -80 280 -163z m-11243 -620 l0 -326 -23 13 c-13 7 -140 81 -281 163 -235 137 -255 151 -237 163 41 28 526 311 534 311 4 1 7 -145 7 -324z m385 168 c137 -80 256 -151 263 -158 10 -9 -44 -45 -259 -171 -149 -87 -275 -160 -280 -162 -5 -2 -9 141 -9 323 0 305 1 327 17 321 10 -4 130 -73 268 -153z m1058 -165 c-1 -178 -5 -322 -8 -322 -16 4 -545 317 -545 323 1 6 540 321 550 321 3 0 4 -145 3 -322z m1447 -4 l0 -325 -58 33 c-270 154 -500 294 -494 299 11 12 536 318 545 319 4 0 7 -147 7 -326z m378 172 c136 -80 255 -151 265 -159 17 -12 -8 -29 -254 -172 -150 -88 -277 -161 -281 -163 -4 -2 -8 143 -8 323 0 292 2 326 16 321 8 -3 126 -71 262 -150z m1062 -172 l0 -326 -22 14 c-13 8 -137 81 -275 162 -139 82 -253 151 -253 154 1 7 529 319 543 321 4 1 7 -146 7 -325z m399 162 c149 -87 270 -160 269 -161 -2 -1 -113 -66 -248 -145 -135 -78 -260 -151 -277 -162 l-33 -20 0 327 c0 180 4 325 9 323 4 -1 130 -74 280 -162z m1051 -162 c0 -179 -4 -324 -8 -322 -45 18 -550 324 -544 329 12 12 536 319 545 319 4 0 7 -147 7 -326z m387 166 c142 -83 261 -155 265 -159 6 -5 -387 -243 -519 -314 l-33 -17 0 326 c0 286 2 325 15 320 8 -3 131 -73 272 -156z m1053 -165 l0 -326 -42 25 c-24 14 -146 85 -273 159 -126 74 -230 139 -232 143 -2 8 521 321 540 323 4 1 7 -145 7 -324z m393 165 c146 -85 266 -158 267 -162 0 -3 -114 -73 -252 -154 -139 -81 -263 -154 -275 -162 l-23 -14 0 327 c0 180 4 325 8 323 5 -1 129 -73 275 -158z m1057 -166 c0 -179 -4 -324 -8 -322 -50 20 -550 324 -544 330 12 12 536 318 545 318 4 0 7 -147 7 -326z m385 166 c143 -83 263 -155 267 -159 7 -6 -85 -61 -519 -314 l-33 -19 0 327 c0 258 3 326 13 322 6 -2 129 -73 272 -157z m1452 -3 c144 -84 262 -155 263 -159 0 -5 -528 -318 -545 -322 -3 0 -7 144 -8 322 -2 283 0 322 13 316 8 -3 133 -74 277 -157z m1053 -155 c0 -175 -2 -321 -6 -324 -3 -3 -129 66 -280 155 -158 92 -271 164 -266 169 12 12 535 318 545 318 4 0 7 -143 7 -318z m378 162 c147 -86 270 -159 274 -163 5 -5 -391 -244 -528 -319 l-24 -13 0 326 c0 179 2 325 5 325 4 0 126 -70 273 -156z m-12298 -486 c133 -79 249 -148 259 -153 17 -9 12 -15 -36 -45 -30 -19 -58 -35 -61 -35 -4 0 -25 -11 -47 -25 -22 -13 -48 -28 -58 -32 -10 -4 -35 -22 -57 -39 -22 -18 -46 -29 -54 -26 -8 3 -17 -1 -20 -9 -3 -8 -12 -14 -21 -14 -8 0 -15 -5 -15 -11 0 -5 -4 -7 -10 -4 -5 3 -10 -1 -10 -9 0 -9 -12 -19 -27 -22 -16 -4 -34 -11 -40 -17 -7 -5 -13 -6 -13 -1 0 4 -6 -1 -14 -11 -12 -17 -14 -14 -18 26 -7 59 -11 569 -4 569 2 0 113 -64 246 -142z m1068 -321 l-3 -153 -160 93 c-88 51 -167 99 -176 107 -8 7 -30 21 -47 32 -18 10 -32 22 -32 27 0 4 -4 6 -9 2 -5 -3 -25 5 -45 19 l-35 23 29 28 c18 17 35 25 45 21 9 -3 13 -2 10 3 -3 5 3 12 14 16 11 3 32 16 47 28 15 12 102 66 193 119 l166 97 3 -155 c1 -84 1 -223 0 -307z m425 293 c125 -73 227 -136 227 -139 0 -3 -117 -74 -260 -158 l-260 -151 0 310 0 310 33 -19 c17 -11 134 -79 260 -153z m1027 -141 l0 -310 -58 33 c-197 112 -471 274 -472 278 0 6 511 308 523 309 4 1 7 -139 7 -310z m392 156 c141 -82 254 -153 250 -157 -6 -6 -451 -270 -504 -299 -17 -9 -18 8 -18 301 0 172 4 310 8 308 4 -1 123 -70 264 -153z m1461 -10 c130 -76 237 -141 237 -144 -1 -5 -490 -294 -513 -303 -7 -2 -11 356 -7 586 0 27 1 28 23 14 12 -8 129 -77 260 -153z m1037 -146 l0 -311 -59 34 c-205 117 -470 274 -471 278 0 6 511 308 523 309 4 1 7 -139 7 -310z m443 126 c184 -107 205 -121 190 -133 -10 -8 -110 -67 -223 -133 -113 -66 -224 -131 -247 -145 l-43 -25 0 311 0 312 58 -34 c33 -18 152 -87 265 -153z m995 -279 l-3 -153 -254 148 c-140 82 -258 152 -262 156 -4 5 110 77 254 160 l262 153 3 -155 c1 -85 1 -224 0 -309z m1451 112 c1 -190 -2 -258 -11 -258 -17 0 -518 294 -515 302 1 4 117 75 257 157 l255 149 7 -47 c3 -25 7 -162 7 -303z m411 184 c102 -60 184 -115 182 -121 -1 -7 2 -10 8 -6 6 4 18 4 27 1 12 -5 13 -9 3 -22 -7 -8 -19 -13 -27 -10 -8 3 -12 2 -9 -3 3 -4 -6 -13 -19 -19 -19 -9 -25 -9 -25 0 0 6 -3 8 -7 4 -5 -4 -8 -12 -8 -18 0 -11 -97 -69 -147 -89 -16 -6 -28 -15 -28 -20 0 -4 -39 -31 -87 -60 -49 -28 -103 -60 -120 -71 l-33 -20 0 312 0 311 53 -30 c28 -16 135 -79 237 -139z m1030 -143 l0 -311 -32 21 c-18 11 -31 27 -30 33 2 7 0 10 -3 6 -4 -4 -22 0 -39 9 -17 10 -33 18 -36 18 -21 3 -49 28 -44 38 4 7 4 9 -1 5 -4 -4 -22 0 -39 9 -17 10 -33 17 -36 18 -18 3 -80 53 -80 65 0 13 -2 13 -9 1 -14 -21 -63 12 -55 37 5 13 4 14 -4 3 -8 -11 -14 -10 -36 4 -14 10 -26 25 -27 34 0 14 -1 13 -7 -2 -7 -16 -9 -16 -27 -2 -20 15 -20 16 4 33 35 24 485 290 494 291 4 1 7 -139 7 -310z m394 156 c141 -82 256 -151 256 -155 -1 -4 -238 -144 -472 -278 l-58 -33 0 311 c0 172 4 310 9 308 4 -1 124 -70 265 -153z m1474 -17 c122 -72 222 -133 222 -137 0 -4 -60 -41 -132 -84 -73 -42 -190 -110 -260 -151 l-128 -75 0 310 0 311 38 -22 c20 -12 137 -81 260 -152z m1022 -139 c0 -170 -3 -308 -7 -306 -128 74 -362 213 -383 229 -16 11 -26 27 -23 34 3 8 0 14 -6 14 -6 0 -11 -5 -11 -10 0 -6 -10 -4 -22 4 -13 7 -35 16 -50 20 -16 4 -28 10 -28 14 0 7 507 309 523 311 4 1 7 -139 7 -310z m-10452 -304 c136 -80 247 -150 247 -155 0 -8 -487 -300 -501 -300 -2 0 -4 135 -4 300 0 165 2 300 5 300 3 0 117 -65 253 -145z m1448 -2 c140 -82 254 -150 254 -153 0 -5 -503 -300 -511 -300 -3 0 -5 135 -5 300 0 165 2 300 5 300 2 0 118 -66 257 -147z m1051 -450 c-5 -4 -507 290 -507 297 0 3 114 72 253 153 l252 147 3 -296 c1 -164 1 -299 -1 -301z m389 452 c137 -80 249 -150 249 -155 0 -8 -488 -300 -501 -300 -2 0 -4 135 -4 300 0 165 2 300 4 300 2 0 115 -65 252 -145z m1450 -2 c139 -82 253 -150 253 -153 0 -6 -503 -300 -513 -300 -3 0 -6 135 -6 300 0 165 3 300 6 300 4 0 120 -66 260 -147z m1054 -154 c0 -169 -4 -299 -9 -297 -33 12 -501 294 -499 300 3 8 487 295 501 297 4 1 7 -134 7 -300z m1645 251 c-2 -3 1 -12 7 -20 8 -12 9 -12 4 3 -3 10 0 17 8 17 16 0 38 -24 31 -33 -3 -4 -2 -5 1 -2 11 7 81 -33 88 -51 4 -9 12 -14 22 -10 8 3 12 2 9 -4 -3 -6 4 -10 16 -10 20 0 259 -129 258 -140 0 -5 -490 -292 -509 -298 -6 -2 -10 102 -10 296 l0 300 39 -21 c22 -12 38 -24 36 -27z m1245 -250 c0 -165 -2 -300 -4 -300 -14 0 -501 292 -501 300 0 9 480 297 498 299 4 1 7 -134 7 -299z m418 135 c122 -71 222 -132 222 -135 0 -5 -402 -243 -477 -283 l-33 -17 0 300 0 300 33 -17 c19 -10 134 -76 255 -148z m1205 140 c20 -14 37 -32 37 -40 0 -8 2 -15 4 -15 2 0 13 -3 23 -6 16 -6 16 -5 -2 10 -20 17 -20 17 3 6 12 -6 22 -15 22 -21 0 -6 5 -7 11 -4 8 6 187 -92 332 -182 l38 -24 -255 -150 c-141 -82 -258 -149 -261 -149 -3 0 -5 135 -5 300 0 165 3 300 8 300 4 0 24 -11 45 -25z m-11734 -367 c1 -115 -1 -208 -4 -208 -3 0 -120 67 -261 149 l-255 150 38 24 c21 13 50 30 65 38 14 8 52 29 84 48 31 19 63 34 71 34 7 0 13 4 13 9 0 5 4 7 9 4 5 -3 11 0 14 8 3 7 27 24 54 36 26 13 63 34 81 47 18 14 40 22 48 19 8 -3 13 -2 9 3 -3 5 1 11 7 14 17 5 26 -111 27 -375z m168 370 c4 -7 35 -27 68 -44 33 -16 59 -36 57 -43 -1 -7 3 -11 10 -8 20 7 50 -13 44 -29 -6 -16 5 -19 20 -4 6 6 58 -19 141 -68 73 -42 133 -79 133 -82 0 -3 -114 -71 -253 -152 l-252 -148 -3 283 c-1 155 0 287 3 294 6 17 22 17 32 1z m-503 -622 c131 -76 234 -142 229 -146 -11 -11 -471 -280 -478 -280 -3 0 -5 129 -5 286 0 157 4 284 8 282 5 -1 115 -65 246 -142z m1480 -21 c104 -61 189 -115 189 -120 1 -8 -183 -121 -420 -256 l-53 -30 0 286 0 286 48 -28 c26 -15 132 -77 236 -138z m1016 -120 c0 -157 -3 -285 -7 -285 -13 1 -475 276 -477 283 -1 8 461 285 477 286 4 1 7 -127 7 -284z m393 141 c131 -76 234 -142 230 -146 -10 -10 -472 -280 -478 -280 -3 0 -5 129 -5 286 0 157 4 284 8 282 4 -1 115 -66 245 -142z m1044 -423 c-7 -6 -482 277 -477 284 3 5 111 70 240 145 l235 137 3 -281 c1 -154 1 -283 -1 -285z m407 419 c120 -70 219 -132 219 -137 0 -9 -459 -284 -473 -285 -3 0 -4 128 -2 285 2 267 4 285 20 276 9 -6 115 -68 236 -139z m1282 95 c49 -29 158 -93 242 -142 84 -48 149 -91 145 -95 -10 -9 -474 -280 -479 -280 -2 0 -4 128 -4 285 0 157 2 285 4 285 2 0 43 -24 92 -53z m1201 -514 c-2 -2 -113 60 -246 138 -133 78 -240 143 -238 145 1 2 111 67 243 144 l239 140 3 -281 c1 -155 1 -284 -1 -286z m421 410 c111 -65 203 -122 203 -128 2 -9 -455 -283 -473 -285 -9 0 -11 554 -2 563 4 4 21 -2 38 -12 17 -11 122 -73 234 -138z m1020 -267 l-3 -145 -234 137 c-129 75 -234 142 -233 147 1 6 106 71 234 147 l233 136 3 -138 c1 -76 1 -204 0 -284z m427 266 c99 -58 188 -110 198 -117 15 -11 -11 -29 -205 -142 -123 -72 -233 -136 -245 -142 l-23 -12 0 287 0 286 48 -28 c26 -15 128 -74 227 -132z m1025 -127 c0 -157 -2 -285 -5 -285 -6 0 -468 270 -478 280 -4 4 95 67 220 140 125 72 232 136 238 141 5 5 13 9 17 9 4 0 8 -128 8 -285z m390 144 c133 -78 238 -145 233 -150 -10 -10 -471 -279 -478 -279 -3 0 -5 128 -5 285 0 157 2 285 5 285 2 0 113 -64 245 -141z m1490 -27 c107 -63 196 -115 198 -116 2 -2 -436 -260 -480 -283 -5 -2 -8 125 -8 282 l0 287 48 -28 c26 -15 135 -79 242 -142z m1010 -118 c0 -225 -3 -285 -12 -281 -42 17 -467 274 -467 282 1 9 453 282 472 284 4 1 7 -128 7 -285z m-12280 -459 c0 -151 -4 -275 -8 -275 -9 0 -451 256 -464 269 -7 6 445 278 465 280 4 1 7 -123 7 -274z m419 120 c111 -65 201 -120 201 -124 -1 -5 -437 -261 -460 -269 -6 -2 -10 101 -10 273 l0 277 34 -20 c19 -11 125 -73 235 -137z m1017 -392 c-7 -7 -465 261 -463 270 1 5 106 69 232 142 l230 135 3 -272 c1 -149 0 -273 -2 -275z m396 411 c128 -75 234 -138 236 -139 3 -2 -95 -61 -365 -219 l-113 -65 0 279 c0 154 2 280 4 280 3 0 110 -61 238 -136z m1467 -13 c168 -99 209 -127 199 -136 -14 -14 -444 -265 -453 -265 -3 0 -5 124 -5 275 l0 276 23 -13 c13 -7 119 -69 236 -137z m1031 45 c0 -97 -1 -104 -19 -99 -10 3 -22 0 -25 -6 -5 -7 -1 -8 9 -4 10 3 21 0 26 -8 11 -18 12 -76 0 -83 -5 -4 -7 4 -5 16 4 21 4 21 -5 3 -6 -13 -4 -25 4 -35 13 -16 21 -230 9 -230 -15 0 -463 266 -461 273 2 7 455 277 464 277 2 0 3 -47 3 -104z m377 -24 c120 -71 226 -133 237 -139 15 -8 -16 -30 -207 -142 -124 -72 -233 -134 -241 -137 -14 -5 -16 24 -16 270 0 152 2 276 4 276 2 0 102 -58 223 -128z m1073 -147 c0 -214 -3 -275 -12 -274 -22 0 -461 265 -457 274 4 10 448 274 462 275 4 0 7 -124 7 -275z m386 138 c180 -105 231 -140 222 -149 -19 -17 -448 -264 -459 -264 -5 0 -9 111 -9 275 0 151 3 275 6 275 3 0 111 -62 240 -137z m1054 -138 c0 -151 -3 -275 -7 -275 -16 0 -462 266 -460 274 3 8 445 273 460 275 4 1 7 -123 7 -274z m410 127 c118 -69 216 -126 218 -127 4 -3 -463 -275 -472 -275 -13 0 4 344 17 353 8 6 6 7 -5 3 -16 -5 -18 4 -18 95 l0 100 23 -12 c12 -7 119 -68 237 -137z m1035 -127 c0 -151 -4 -275 -8 -275 -10 0 -437 249 -455 264 -9 9 41 43 220 149 128 75 235 137 238 137 3 0 5 -124 5 -275z m390 138 c129 -75 231 -140 227 -144 -14 -14 -453 -269 -462 -269 -6 0 -10 105 -10 275 0 151 2 275 5 275 3 0 111 -62 240 -137z m1448 -2 c125 -73 227 -136 227 -139 -1 -6 -437 -262 -460 -270 -6 -2 -10 97 -10 273 0 152 3 274 8 272 4 -2 109 -64 235 -136z m1043 -408 c-5 -5 -432 242 -454 262 -11 10 33 39 220 148 l233 136 3 -271 c1 -149 0 -273 -2 -275z m399 410 c129 -76 231 -141 227 -144 -14 -14 -454 -269 -463 -269 -5 0 -9 121 -9 275 0 151 2 275 5 275 3 0 111 -62 240 -137z m-12294 -488 c116 -68 216 -128 221 -133 8 -8 -394 -252 -429 -260 -10 -3 -13 47 -13 257 0 144 2 261 4 261 2 0 100 -56 217 -125z m1055 -393 c-4 -4 -242 132 -419 239 l-28 17 223 130 223 131 3 -256 c1 -141 0 -258 -2 -261z m1454 258 c0 -152 -4 -260 -9 -260 -13 0 -441 251 -441 259 1 6 429 259 443 260 4 1 7 -116 7 -259z m380 135 c118 -69 218 -129 222 -133 7 -7 -376 -239 -424 -258 -17 -6 -18 10 -18 255 0 144 2 261 3 261 2 0 100 -56 217 -125z m1478 -20 c111 -65 201 -119 200 -120 -13 -9 -439 -255 -443 -255 -3 0 -5 118 -5 261 l0 261 23 -14 c12 -8 113 -68 225 -133z m1023 -115 c0 -139 -2 -254 -4 -257 -3 -2 -102 53 -221 123 -154 90 -214 130 -207 137 13 13 425 255 429 252 1 -1 3 -116 3 -255z m407 124 c108 -64 200 -119 205 -123 6 -6 -419 -261 -436 -261 -4 0 -7 117 -7 260 0 260 0 261 21 250 11 -6 109 -63 217 -126z m1436 6 c118 -69 216 -128 216 -131 0 -7 -425 -259 -437 -259 -5 0 -8 117 -8 260 0 143 3 259 6 257 4 -1 104 -58 223 -127z m1042 -387 c-6 -6 -430 242 -433 253 -1 5 95 66 215 135 l217 126 3 -255 c1 -140 0 -257 -2 -259z m1454 256 c0 -245 -1 -261 -17 -255 -50 19 -432 251 -425 258 11 11 425 256 435 257 4 1 7 -116 7 -260z m393 131 c119 -69 217 -128 217 -131 0 -8 -428 -259 -441 -259 -5 0 -9 109 -9 261 0 143 4 259 8 257 5 -1 106 -59 225 -128z m1043 -387 c-3 -4 -425 236 -444 252 -2 2 97 61 220 133 l223 130 3 -255 c1 -141 0 -258 -2 -260z m437 365 c103 -61 187 -112 185 -113 -10 -8 -423 -247 -434 -252 -12 -4 -14 36 -14 257 l0 262 38 -22 c20 -12 122 -72 225 -132z m1017 -108 c0 -143 -4 -260 -9 -260 -14 0 -432 247 -433 257 -1 7 417 260 435 262 4 1 7 -116 7 -259z m-11871 -347 c101 -60 183 -113 183 -118 0 -5 -80 -55 -178 -113 -99 -57 -194 -113 -211 -124 l-33 -20 0 256 0 257 28 -15 c15 -8 110 -64 211 -123z m1029 -241 l-3 -130 -209 122 c-114 67 -208 126 -209 131 0 6 94 65 209 132 l209 122 3 -124 c1 -68 1 -182 0 -253z m401 249 c116 -68 211 -125 209 -126 -6 -6 -431 -255 -435 -255 -1 0 -3 115 -3 256 0 141 4 254 8 252 5 -1 104 -59 221 -127z m1044 -128 c-1 -136 -5 -247 -8 -246 -23 7 -425 247 -420 251 13 13 420 249 425 247 3 -2 4 -115 3 -252z m392 132 c110 -64 204 -120 208 -124 5 -5 -79 -59 -185 -121 -106 -63 -203 -120 -215 -128 l-23 -14 0 256 c0 142 3 255 8 253 4 -3 97 -57 207 -122z m1053 -254 l-3 -130 -205 120 c-113 66 -211 124 -218 128 -7 4 71 55 205 134 l218 126 3 -124 c1 -68 1 -182 0 -254z m400 250 c117 -68 211 -125 210 -126 -4 -4 -394 -232 -418 -245 -20 -11 -20 -8 -20 245 0 141 4 255 8 253 4 -1 103 -59 220 -127z m1037 -369 c-3 -3 -13 2 -22 10 -10 8 -27 18 -38 22 -11 4 -98 53 -194 108 -167 98 -173 102 -152 117 12 8 109 65 214 126 l192 112 3 -245 c1 -135 0 -247 -3 -250z m425 358 c96 -56 179 -105 183 -110 7 -6 -274 -178 -358 -218 -16 -8 -38 -22 -47 -30 -17 -14 -18 -2 -18 242 l0 258 33 -20 c17 -11 111 -66 207 -122z m1296 87 c49 -29 146 -86 216 -127 70 -41 126 -75 125 -76 -1 -1 -382 -224 -429 -251 -5 -2 -8 111 -8 251 0 141 2 256 4 256 2 0 43 -24 92 -53z m1172 -325 l-3 -128 -207 120 c-113 67 -207 125 -208 131 -1 5 92 64 206 131 l209 122 3 -123 c1 -68 1 -182 0 -253z m397 252 c119 -70 214 -129 211 -131 -6 -6 -427 -253 -432 -253 -2 0 -3 115 -3 255 0 140 2 255 5 255 2 0 101 -57 219 -126z m1055 -130 l0 -256 -32 19 c-364 211 -407 238 -396 245 93 57 415 246 421 247 4 1 7 -114 7 -255z m434 104 c88 -51 160 -97 160 -101 1 -7 -114 -78 -376 -230 l-48 -28 0 256 0 256 53 -30 c28 -16 124 -72 211 -123z m1004 -226 l-3 -129 -209 121 c-114 68 -209 126 -210 130 0 5 94 64 209 132 l210 123 3 -124 c1 -68 1 -182 0 -253z m-11951 -203 c76 -45 163 -98 193 -117 30 -20 57 -38 59 -39 2 -2 1 -6 -2 -9 -4 -4 -19 1 -34 10 l-28 17 23 -20 23 -20 -23 -15 c-43 -27 -350 -206 -354 -206 -2 0 -4 108 -4 240 0 132 2 240 4 240 3 0 67 -37 143 -81z m1526 -49 c97 -56 177 -106 177 -110 0 -4 -80 -54 -177 -110 -98 -57 -188 -110 -200 -118 l-23 -14 0 242 0 242 23 -14 c12 -8 102 -61 200 -118z m1036 -116 c1 -137 -2 -234 -7 -232 -22 8 -402 233 -402 238 0 8 394 238 402 234 3 -2 7 -110 7 -240z m1439 -113 l-3 -120 -202 117 c-111 64 -202 119 -202 122 0 3 91 58 202 122 l202 117 3 -120 c1 -65 1 -173 0 -238z m415 229 c97 -57 177 -106 177 -110 0 -4 -80 -53 -177 -110 -98 -57 -188 -110 -200 -118 l-23 -14 0 242 0 242 23 -14 c12 -8 102 -61 200 -118z m1302 80 c11 -10 40 -29 65 -42 25 -13 63 -35 85 -49 61 -37 96 -56 137 -76 21 -10 38 -21 38 -24 0 -4 -20 -13 -44 -20 -25 -7 -43 -16 -40 -20 4 -7 -75 -56 -278 -173 l-48 -28 0 241 0 242 33 -17 c17 -9 41 -24 52 -34z m1608 -92 c86 -51 157 -95 157 -98 0 -3 -42 -30 -92 -60 -51 -29 -141 -82 -200 -117 l-108 -62 0 240 0 240 43 -26 c23 -14 113 -67 200 -117z m1005 -217 l-3 -118 -195 113 c-107 63 -196 118 -198 122 -1 4 87 60 195 124 l198 116 3 -119 c1 -66 1 -172 0 -238z m454 209 c81 -47 147 -87 147 -90 0 -3 -70 -45 -156 -95 -86 -49 -178 -103 -205 -118 l-48 -29 0 242 0 241 58 -33 c32 -18 124 -71 204 -118z m998 -90 l0 -240 -33 17 c-76 40 -377 218 -377 223 0 3 64 42 143 87 78 46 167 98 197 117 30 19 58 35 63 35 4 1 7 -107 7 -239z m1438 -119 l-3 -119 -120 70 c-66 39 -157 92 -203 118 -57 33 -79 51 -70 57 7 4 99 58 203 119 l190 112 3 -119 c1 -65 1 -173 0 -238z m415 231 c135 -79 184 -112 175 -119 -10 -7 -326 -194 -390 -230 -5 -2 -8 104 -8 237 0 226 1 240 18 231 9 -5 101 -59 205 -119z m1037 -113 c0 -132 -4 -239 -8 -237 -37 14 -382 224 -386 234 -3 8 0 11 10 7 9 -3 14 0 12 8 -3 10 340 225 365 228 4 1 7 -107 7 -240z m-12280 -459 c0 -126 -3 -230 -7 -230 -17 0 -390 226 -384 233 10 10 374 225 384 226 4 1 7 -102 7 -229z m433 90 c81 -47 146 -88 144 -92 -2 -7 -373 -228 -383 -228 -2 0 -4 104 -4 231 l0 231 48 -29 c27 -15 114 -66 195 -113z m1004 -317 c-5 -5 -387 218 -387 226 0 3 87 56 193 118 l192 112 3 -226 c1 -124 1 -228 -1 -230z m1441 112 l-3 -115 -192 113 c-112 65 -188 116 -183 121 5 5 91 57 192 116 l183 106 3 -113 c1 -62 1 -165 0 -228z m444 205 c81 -47 147 -87 148 -90 0 -5 -358 -219 -382 -228 -4 -2 -8 100 -8 227 l0 231 48 -27 c26 -16 114 -66 194 -113z m1298 85 c30 -18 110 -65 178 -104 l123 -73 -188 -110 c-103 -61 -194 -113 -200 -115 -10 -4 -13 45 -13 226 l0 232 23 -12 c12 -6 47 -26 77 -44z m1587 -82 c84 -49 153 -90 153 -93 0 -5 -279 -171 -357 -213 l-33 -17 0 230 0 231 43 -25 c23 -14 110 -65 194 -113z m1009 -320 c-2 -2 -92 47 -201 110 l-196 115 98 58 c54 31 143 83 198 116 l100 59 3 -227 c1 -125 0 -229 -2 -231z m1909 302 c55 -32 106 -63 113 -68 12 -9 -73 -64 -320 -206 l-58 -32 0 230 0 231 83 -49 c45 -26 127 -74 182 -106z m985 -76 c0 -196 -2 -230 -14 -226 -8 3 -98 55 -201 116 l-186 109 123 73 c68 39 155 91 193 115 39 23 73 43 78 43 4 1 7 -103 7 -230z m433 91 c81 -47 146 -88 144 -92 -2 -7 -373 -228 -383 -228 -2 0 -4 104 -4 231 l0 231 49 -29 c26 -15 114 -66 194 -113z m1393 30 c103 -60 191 -113 195 -117 7 -7 -367 -233 -385 -233 -3 0 -6 104 -6 230 0 127 2 230 4 230 3 0 89 -49 192 -110z m-12096 -608 c-1 -7 -352 -212 -363 -212 -8 0 -9 414 -2 422 7 6 365 -201 365 -210z m866 -209 c-4 -4 -342 190 -358 205 -4 4 75 55 175 114 l182 107 3 -211 c1 -116 0 -213 -2 -215z m447 291 l138 -81 -73 -42 c-40 -23 -80 -46 -88 -52 -8 -5 -22 -12 -30 -15 -32 -12 -76 -38 -97 -57 -12 -11 -29 -17 -37 -14 -8 3 -17 -1 -21 -11 -15 -39 -21 17 -24 209 l-3 201 49 -28 c26 -16 110 -65 186 -110z m999 -82 c3 -185 1 -212 -12 -207 -48 19 -174 101 -178 118 -3 13 -7 15 -12 6 -6 -9 -16 -4 -36 17 -15 16 -24 23 -20 17 10 -17 0 -16 -29 3 -14 9 -22 21 -18 27 3 6 1 7 -5 3 -6 -4 -20 -1 -31 6 -19 11 -18 13 12 32 68 43 322 193 324 191 2 -1 4 -97 5 -213z m400 109 c98 -57 176 -107 173 -111 -5 -9 -349 -210 -359 -210 -3 0 -6 97 -6 216 0 118 3 213 8 211 4 -2 87 -50 184 -106z m1473 -16 c83 -48 151 -89 153 -90 3 -2 -339 -205 -360 -213 -4 -2 -8 94 -8 213 l0 217 33 -20 c17 -11 100 -59 182 -107z m1012 -301 c-7 -7 -356 201 -354 210 2 5 81 54 177 110 l175 102 3 -209 c1 -116 1 -212 -1 -213z m406 316 c139 -81 175 -106 165 -115 -15 -14 -344 -205 -352 -205 -3 0 -6 97 -6 216 0 118 3 213 8 211 4 -2 87 -50 185 -107z m1043 -318 c-5 -4 -330 182 -354 203 -9 8 29 35 170 118 l183 107 3 -212 c1 -116 0 -213 -2 -216z m477 274 c53 -31 97 -60 97 -64 0 -6 -323 -199 -352 -210 -4 -2 -8 93 -8 212 l0 215 83 -48 c45 -26 126 -73 180 -105z m964 -273 c-2 -2 -86 45 -186 103 l-182 106 128 75 c70 42 153 90 183 109 l55 33 3 -211 c1 -116 1 -213 -1 -215z m430 302 c84 -49 150 -92 145 -96 -9 -9 -332 -200 -349 -206 -10 -4 -13 42 -13 212 l0 217 33 -19 c17 -11 101 -59 184 -108z m1023 -90 c0 -118 -3 -215 -6 -215 -10 0 -354 201 -359 210 -4 7 338 216 358 219 4 1 7 -96 7 -214z m438 80 c72 -42 132 -80 132 -83 -1 -6 -63 -43 -302 -180 l-58 -34 0 216 0 216 48 -29 c26 -15 107 -63 180 -106z m1450 -2 c73 -42 129 -80 125 -84 -11 -10 -351 -209 -357 -209 -3 0 -6 97 -6 216 l0 216 53 -31 c28 -17 112 -66 185 -108z m1002 -84 c0 -115 -3 -209 -7 -209 -14 0 -362 206 -360 213 3 12 351 215 360 210 4 -2 7 -98 7 -214z m-10840 -454 c0 -113 -3 -205 -8 -205 -4 0 -64 34 -132 75 -69 41 -144 84 -167 97 -24 12 -43 26 -43 30 0 5 24 20 53 33 64 31 137 72 157 89 23 19 97 55 104 50 3 -2 4 -1 1 3 -4 5 22 31 33 33 1 0 2 -92 2 -205z m302 149 c24 -7 91 -54 96 -67 2 -4 8 -4 13 -1 13 8 60 -23 56 -37 -1 -7 5 -14 13 -16 13 -4 13 -3 0 6 -25 17 -7 13 45 -13 l49 -23 -25 -15 c-79 -51 -322 -188 -330 -188 -9 0 -8 177 1 285 0 6 -2 29 -6 53 -3 23 -3 50 0 58 5 13 11 12 36 -9 16 -14 40 -29 52 -33z m1556 -59 c83 -49 152 -92 152 -95 0 -6 -334 -200 -344 -200 -3 0 -6 93 -6 206 l0 206 23 -14 c12 -8 91 -55 175 -103z m1032 95 c0 -11 -7 -20 -15 -20 -19 0 -19 -17 0 -50 11 -18 14 -64 15 -174 0 -137 -1 -148 -17 -142 -39 15 -333 192 -330 199 2 6 335 206 345 207 1 0 2 -9 2 -20z m408 -93 l164 -95 -124 -72 c-68 -40 -144 -85 -171 -101 -26 -16 -52 -29 -57 -29 -11 0 -14 392 -3 403 3 4 11 3 17 -2 6 -5 84 -52 174 -104z m1540 -55 c34 -20 62 -39 62 -42 -1 -5 -320 -191 -340 -198 -6 -2 -10 74 -10 202 l0 205 113 -65 c61 -37 140 -82 175 -102z m2378 -240 c-5 -5 -345 190 -346 198 0 3 78 51 173 106 l172 102 3 -201 c1 -110 0 -202 -2 -205z m512 240 c34 -20 62 -39 62 -42 -1 -5 -320 -191 -341 -198 -5 -2 -9 82 -9 202 l0 205 113 -65 c61 -37 140 -82 175 -102z m2382 -41 l0 -210 -175 102 c-96 56 -175 104 -175 108 0 4 338 207 348 209 1 0 2 -94 2 -209z m557 -7 c-15 -13 -323 -194 -331 -194 -3 0 -6 92 -6 204 l0 205 174 -102 c131 -76 172 -105 163 -113z m-4491 110 c90 -53 164 -99 164 -103 0 -6 -301 -184 -332 -196 -17 -7 -18 7 -18 194 0 136 3 201 11 201 6 0 84 -43 175 -96z m2750 68 c6 -12 13 -20 16 -17 5 6 80 -23 88 -34 3 -4 23 -18 45 -31 22 -13 51 -33 64 -44 13 -12 21 -16 18 -9 -4 6 11 3 33 -8 22 -11 40 -23 40 -27 0 -7 -299 -185 -332 -197 -17 -7 -18 4 -18 132 0 233 13 300 46 235z m-10552 -655 c1 -10 -293 -186 -311 -187 -9 0 -12 46 -12 182 0 100 2 185 5 189 5 9 316 -172 318 -184z m894 -101 l-3 -94 -155 92 c-86 50 -157 95 -159 100 -1 5 69 51 156 102 l158 93 3 -100 c1 -55 1 -142 0 -193z m420 185 c125 -73 140 -85 125 -96 -10 -6 -74 -45 -143 -85 -69 -40 -135 -80 -147 -88 l-23 -14 0 197 0 197 23 -14 c12 -8 86 -52 165 -97z m1572 -86 c-1 -11 -288 -184 -307 -184 -10 -1 -13 42 -13 182 0 101 3 186 6 189 8 8 314 -175 314 -187z m898 -94 l-3 -99 -158 93 c-87 51 -159 96 -159 101 0 4 71 49 158 100 l159 93 3 -94 c1 -52 1 -139 0 -194z m1442 95 l0 -195 -164 97 c-91 53 -164 98 -162 100 4 3 319 190 324 191 1 1 2 -86 2 -193z m443 72 c64 -38 117 -70 117 -72 0 -3 -256 -156 -322 -193 -5 -2 -8 84 -8 192 l0 197 48 -28 c26 -15 100 -58 165 -96z m1007 -68 c0 -121 -4 -190 -10 -190 -17 0 -312 176 -311 186 0 7 307 193 319 194 1 0 2 -85 2 -190z m508 28 c29 -17 52 -32 50 -33 -2 -2 -76 -46 -165 -98 l-163 -95 0 193 0 194 113 -66 c61 -36 136 -79 165 -95z m1327 67 c83 -48 154 -90 158 -94 4 -5 -56 -46 -135 -91 -79 -46 -153 -90 -165 -98 l-23 -14 0 196 c0 109 3 195 8 193 4 -2 75 -44 157 -92z m1055 -95 c0 -146 -3 -190 -12 -189 -18 0 -307 172 -310 183 -2 8 306 196 319 196 2 0 3 -85 3 -190z m514 22 c37 -23 38 -26 21 -38 -38 -28 -296 -176 -300 -172 -3 3 -8 329 -5 370 0 6 180 -95 284 -160z m1329 68 c87 -51 155 -96 150 -100 -4 -4 -69 -42 -143 -85 -74 -43 -145 -85 -157 -93 l-23 -14 0 196 c0 109 3 195 8 193 4 -2 78 -46 165 -97z m-11243 -556 l0 -185 -30 21 c-17 12 -28 26 -25 31 4 5 -1 6 -9 3 -9 -3 -16 -1 -16 5 0 6 -6 8 -14 5 -8 -3 -22 3 -32 14 -11 11 -30 23 -43 27 -36 11 -128 69 -127 80 0 7 263 171 294 184 1 1 2 -83 2 -185z m2890 1 l-1 -186 -32 20 c-18 10 -85 50 -151 88 -65 38 -119 73 -120 76 -1 6 284 181 302 186 1 1 2 -82 2 -184z m2888 -89 l-3 -94 -150 88 c-82 49 -150 91 -150 94 0 4 68 46 150 94 l150 88 3 -87 c1 -49 1 -131 0 -183z m510 117 c23 -14 42 -26 42 -28 0 -2 -55 -36 -122 -76 -68 -39 -138 -80 -155 -91 l-33 -20 0 186 0 185 113 -65 c61 -37 131 -77 155 -91z m2380 -117 l-3 -96 -153 91 c-85 50 -151 93 -147 97 3 3 72 45 153 93 l147 87 3 -88 c1 -49 1 -132 0 -184z m1870 165 c67 -40 120 -76 117 -80 -4 -7 -177 -110 -297 -178 -5 -2 -8 80 -8 182 l0 187 33 -20 c17 -11 87 -52 155 -91z m1020 -165 l-3 -95 -149 87 c-82 48 -148 92 -147 97 1 6 68 49 149 97 l147 86 3 -88 c1 -49 1 -132 0 -184z m549 91 c7 -7 -154 -98 -176 -100 -11 -1 -23 -7 -25 -14 -3 -7 -12 -13 -19 -13 -8 0 -22 -9 -33 -21 -10 -11 -27 -25 -36 -30 -17 -9 -18 2 -18 175 l0 184 151 -88 c83 -49 153 -91 156 -93z m-11706 90 c78 -46 142 -87 142 -93 0 -8 -81 -59 -245 -153 l-58 -32 0 180 c0 108 4 181 10 181 5 0 73 -37 151 -83z m1442 2 c67 -40 130 -78 140 -84 15 -11 -2 -24 -138 -103 l-155 -90 0 180 c0 158 2 179 15 174 9 -3 71 -38 138 -77z m2497 -92 c0 -96 -2 -176 -5 -179 -9 -8 -305 165 -301 177 3 11 276 174 294 174 9 1 12 -40 12 -172z m383 96 c73 -42 140 -81 150 -88 15 -10 -3 -24 -137 -102 -143 -84 -155 -89 -159 -69 -10 41 -6 336 4 336 6 0 70 -34 142 -77z m2905 -9 c81 -47 148 -87 150 -89 2 -2 -289 -175 -310 -183 -4 -2 -8 78 -8 177 0 119 4 181 10 181 6 0 77 -39 158 -86z m2482 -93 l0 -180 -149 87 c-81 48 -149 91 -150 95 -2 8 276 176 292 177 4 0 7 -81 7 -179z m-10303 -484 c-1 -4 -63 -43 -137 -86 l-135 -79 -5 162 c-3 88 -4 164 -2 168 3 9 282 -155 279 -165z m910 -164 c-5 -4 -287 160 -287 167 1 3 65 42 143 87 l142 82 3 -166 c1 -91 1 -168 -1 -170z m408 247 c50 -29 101 -59 114 -67 23 -15 20 -17 -119 -99 -78 -46 -144 -84 -146 -84 -2 0 -4 77 -4 171 l0 171 33 -20 c17 -10 73 -43 122 -72z m2482 -247 c-5 -5 -287 160 -287 167 1 3 65 42 143 87 l142 82 3 -166 c1 -91 1 -168 -1 -170z m432 232 l113 -67 -88 -52 c-49 -28 -115 -67 -146 -85 l-58 -32 0 171 0 172 33 -20 c17 -11 83 -50 146 -87z m1009 -150 l-3 -84 -142 82 c-78 45 -139 85 -135 89 4 4 68 42 142 86 l135 79 3 -84 c1 -46 1 -121 0 -168z m1870 156 l123 -73 -88 -52 c-48 -28 -114 -67 -145 -85 l-58 -32 0 171 0 172 23 -14 c12 -8 77 -47 145 -87z m1020 -156 l-3 -84 -142 82 c-78 45 -138 85 -134 90 4 4 68 43 142 86 l134 78 3 -83 c1 -46 1 -122 0 -169z m454 140 c48 -27 88 -52 88 -55 0 -5 -259 -160 -281 -168 -5 -2 -9 73 -9 168 l0 171 58 -33 c32 -18 97 -55 144 -83z m2435 -222 c-2 -2 -68 35 -147 81 l-143 85 38 23 c22 13 87 51 145 84 l105 62 3 -165 c1 -91 1 -168 -1 -170z m1441 83 l-3 -84 -135 79 c-74 43 -136 82 -137 86 -2 4 59 44 135 88 l137 81 3 -83 c1 -46 1 -121 0 -167z m-9702 167 c73 -43 134 -81 134 -84 0 -6 -275 -169 -285 -169 -3 0 -5 74 -5 165 0 117 3 165 11 165 7 0 72 -35 145 -77z m6824 -88 c0 -91 -2 -165 -5 -165 -10 0 -285 163 -285 169 1 9 263 160 278 161 9 0 12 -40 12 -165z m-3102 -450 c10 -9 -14 -27 -118 -88 -72 -42 -133 -77 -136 -77 -2 0 -4 72 -4 159 l0 159 123 -70 c67 -39 128 -76 135 -83z m-6298 -10 l0 -156 -22 12 c-34 17 -210 120 -231 135 -17 11 -5 20 110 88 70 42 131 76 136 76 4 0 7 -70 7 -155z m1450 0 c0 -85 -3 -155 -7 -155 -14 1 -257 147 -260 156 -3 10 233 151 255 153 9 1 12 -36 12 -154z m393 84 c67 -39 125 -74 129 -78 7 -6 -75 -57 -219 -139 l-43 -24 0 156 c0 86 3 156 6 156 3 0 60 -32 127 -71z m1449 -1 c70 -40 128 -76 128 -79 0 -6 -256 -159 -266 -159 -2 0 -4 70 -4 155 0 85 3 155 7 155 4 0 64 -33 135 -72z m1048 -83 c0 -85 -3 -155 -7 -155 -5 0 -68 36 -141 79 l-133 78 128 76 c71 42 134 76 141 76 9 1 12 -36 12 -154z m2880 0 c0 -145 -1 -155 -17 -146 -10 5 -71 40 -136 79 l-118 69 128 76 c70 42 131 76 136 76 4 1 7 -69 7 -154z m1450 0 c0 -85 -2 -155 -4 -155 -2 0 -64 34 -136 76 -106 62 -129 79 -118 89 16 16 240 145 250 145 5 0 8 -70 8 -155z m411 74 c66 -39 119 -72 117 -74 -6 -6 -259 -155 -264 -155 -2 0 -4 70 -4 156 0 136 2 155 15 150 9 -3 70 -38 136 -77z m1029 -75 l0 -156 -32 19 c-18 10 -79 46 -135 78 -57 33 -99 62 -95 66 11 12 246 148 255 149 4 0 7 -70 7 -156z m1450 1 c0 -85 -2 -155 -5 -155 -11 0 -265 152 -265 159 1 8 241 149 258 150 9 1 12 -36 12 -154z m411 74 c108 -63 119 -72 102 -83 -21 -15 -197 -118 -230 -135 l-23 -12 0 157 c0 136 2 155 15 150 9 -3 70 -38 136 -77z m-12181 -558 c0 -6 -204 -128 -232 -139 -4 -2 -8 62 -8 141 l0 145 120 -70 c66 -39 120 -73 120 -77z m926 -139 c-5 -5 -245 130 -246 138 0 3 55 37 123 77 l122 72 3 -141 c1 -77 0 -143 -2 -146z m1440 1 c-2 -3 -15 2 -28 10 -12 8 -67 40 -121 72 l-99 57 124 72 123 71 3 -139 c1 -76 1 -141 -2 -143z m1882 195 c69 -41 89 -57 80 -65 -23 -17 -224 -133 -231 -133 -4 0 -7 66 -7 146 l0 146 33 -20 c17 -11 74 -45 125 -74z m1008 -195 c-3 -3 -60 27 -127 67 l-121 72 103 60 c57 33 113 66 124 73 20 12 20 10 23 -128 1 -77 0 -142 -2 -144z m1961 131 c-14 -12 -224 -134 -232 -134 -3 0 -5 65 -5 144 l0 145 124 -72 c93 -54 122 -75 113 -83z m929 -131 c-4 -4 -142 72 -225 124 -23 15 -21 16 100 88 l124 73 3 -140 c1 -78 0 -143 -2 -145z m3327 193 c48 -28 87 -53 87 -56 -1 -6 -234 -140 -244 -140 -3 0 -6 66 -6 146 l0 146 38 -22 c20 -12 76 -45 125 -74z m1004 -193 c-7 -6 -237 131 -234 140 1 4 54 38 117 75 l115 67 3 -139 c1 -76 1 -141 -1 -143z m-6812 211 c63 -37 115 -69 115 -73 0 -7 -217 -134 -237 -139 -10 -3 -13 29 -13 137 0 91 4 141 10 141 6 0 62 -30 125 -66z m3934 -75 c1 -111 -1 -140 -12 -137 -26 6 -237 133 -234 141 3 10 219 136 234 137 8 0 12 -40 12 -141z m-8991 -393 c56 -33 102 -63 102 -66 0 -7 -197 -123 -217 -128 -10 -3 -13 26 -13 128 0 102 3 131 13 128 7 -2 59 -30 115 -62z m1037 -66 c0 -71 -3 -130 -7 -130 -11 0 -218 123 -218 130 0 7 201 128 215 129 6 1 10 -48 10 -129z m1445 0 c0 -71 -3 -130 -6 -130 -10 0 -224 124 -224 130 0 6 212 129 223 130 4 0 7 -58 7 -130z m402 68 c59 -34 108 -65 108 -68 0 -6 -198 -123 -217 -128 -10 -3 -13 27 -13 127 0 72 3 131 7 131 4 0 56 -28 115 -62z m1038 -68 c0 -71 -2 -130 -5 -130 -14 0 -210 122 -210 130 0 9 190 127 208 129 4 1 7 -57 7 -129z m1450 0 c0 -71 -3 -130 -7 -130 -10 0 -223 124 -223 130 0 6 212 130 223 130 4 0 7 -58 7 -130z m402 68 c59 -35 108 -65 108 -68 0 -6 -213 -130 -223 -130 -4 0 -7 59 -7 130 0 72 3 130 7 130 3 0 55 -28 115 -62z m1442 1 c58 -34 106 -65 106 -69 0 -6 -205 -130 -216 -130 -2 0 -4 59 -4 130 0 72 2 130 4 130 2 0 52 -28 110 -61z m1046 -69 c0 -71 -3 -130 -7 -130 -11 0 -223 124 -223 130 0 6 211 129 223 130 4 0 7 -58 7 -130z m1440 -1 c0 -78 -4 -129 -9 -127 -21 7 -220 123 -220 128 0 6 210 129 222 129 4 1 7 -58 7 -130z m408 67 c56 -33 102 -63 102 -66 0 -6 -207 -130 -218 -130 -4 0 -7 59 -7 130 0 85 4 130 10 128 6 -2 57 -30 113 -62z m1042 -67 c0 -101 -3 -130 -13 -127 -19 5 -217 121 -217 127 0 8 202 129 218 130 9 1 12 -31 12 -130z m-11782 -484 c1 -1 -45 -30 -103 -63 l-105 -61 0 124 0 124 103 -61 c56 -33 103 -61 105 -63z m1360 51 c45 -26 82 -49 82 -51 0 -4 -137 -87 -187 -114 l-23 -12 0 127 0 126 23 -14 c12 -8 59 -36 105 -62z m1020 -109 l-3 -65 -103 61 c-72 42 -100 63 -90 68 7 5 54 32 103 62 l90 53 3 -58 c2 -31 2 -86 0 -121z m2890 -1 l-3 -64 -104 60 c-72 43 -99 64 -90 69 8 5 55 33 104 62 l90 54 3 -58 c2 -32 2 -87 0 -123z m1935 69 c16 -11 9 -17 -55 -55 -40 -23 -88 -51 -105 -62 l-33 -20 0 126 0 126 88 -52 c48 -28 95 -57 105 -63z m2905 -10 c2 -1 -34 -24 -80 -50 -46 -27 -93 -55 -105 -63 l-23 -14 0 125 0 126 103 -60 c56 -34 103 -62 105 -64z m940 -59 l-3 -65 -100 58 c-55 33 -100 62 -100 65 0 4 45 33 100 65 l100 59 3 -59 c2 -32 2 -87 0 -123z m-7218 54 c0 -66 -2 -120 -5 -120 -16 0 -205 124 -198 130 17 17 179 109 191 110 9 0 12 -30 12 -120z m1847 64 c79 -46 93 -58 82 -69 -25 -23 -187 -113 -193 -107 -11 11 -6 232 5 232 6 0 54 -25 106 -56z m2889 0 c52 -30 94 -57 94 -59 0 -4 -199 -125 -205 -125 -3 0 -5 54 -5 120 0 78 4 120 11 120 5 0 53 -25 105 -56z m2890 0 c52 -31 94 -58 94 -60 0 -3 -140 -87 -187 -113 l-23 -12 0 121 c0 79 4 120 11 120 6 0 53 -25 105 -56z m1034 -63 l0 -120 -105 61 c-58 33 -104 62 -103 63 10 9 194 115 201 115 4 0 7 -54 7 -119z m-10840 -460 l0 -109 -90 51 c-49 29 -88 56 -87 61 3 8 156 103 170 105 4 1 7 -48 7 -108z m1443 58 c-7 -7 -7 -25 -1 -54 5 -24 8 -59 6 -79 l-3 -35 -89 52 c-49 29 -87 57 -86 62 2 6 40 31 84 57 77 45 81 46 90 27 6 -12 6 -23 -1 -30z m420 -6 c42 -24 77 -48 77 -51 0 -4 -17 -16 -38 -28 -20 -11 -63 -35 -94 -53 l-58 -33 0 112 c0 130 -10 125 113 53z m1435 6 c48 -28 88 -53 90 -54 2 -2 -29 -22 -70 -46 -40 -23 -83 -49 -95 -57 l-23 -14 0 111 c0 61 3 111 6 111 3 0 44 -23 92 -51z m1443 0 c49 -28 87 -54 84 -59 -4 -7 -152 -97 -177 -108 -5 -2 -8 46 -8 107 0 61 3 111 6 111 4 0 47 -23 95 -51z m1039 -60 l0 -111 -22 14 c-13 8 -56 34 -97 57 l-73 43 88 53 c49 30 92 54 97 54 4 1 7 -49 7 -110z m411 57 c79 -47 89 -55 73 -64 -11 -6 -54 -31 -97 -56 l-77 -46 0 110 c0 61 2 110 5 110 2 0 45 -24 96 -54z m1392 27 c23 -15 44 -30 47 -33 3 -3 12 -6 20 -8 54 -12 40 -57 -29 -96 -25 -15 -56 -34 -68 -42 -22 -16 -23 -16 -23 13 0 16 7 39 16 51 12 17 12 22 2 20 -9 -2 -14 14 -16 60 -2 34 0 62 3 62 3 0 24 -12 48 -27z m1087 -84 l0 -111 -32 20 c-18 10 -62 36 -97 57 -45 27 -59 40 -50 46 8 4 48 28 89 53 41 25 78 45 83 45 4 1 7 -49 7 -110z m1449 0 l2 -111 -58 33 c-32 18 -75 42 -95 53 -21 12 -38 24 -38 28 0 7 170 108 181 108 4 0 7 -50 8 -111z m384 63 c15 -7 25 -17 22 -22 -3 -4 3 -6 12 -4 10 3 31 -4 47 -15 l28 -19 -93 -55 -94 -56 -3 42 c-5 61 6 110 23 103 9 -3 12 0 9 9 -3 8 -12 11 -20 8 -10 -4 -14 3 -14 27 l0 32 28 -18 c15 -10 39 -24 55 -32z m-11953 -36 c0 -40 3 -88 6 -106 7 -32 6 -32 -17 -20 -13 7 -26 16 -29 19 -3 3 -18 13 -35 22 -16 9 -29 21 -27 28 1 7 -2 10 -7 7 -5 -4 -23 2 -40 12 l-30 18 32 13 c18 8 38 13 45 12 7 -1 11 3 10 10 -3 10 63 55 85 58 4 1 7 -32 7 -73z m359 63 c17 -6 31 -15 31 -19 0 -5 25 -21 55 -35 30 -15 55 -30 55 -34 0 -4 -25 -18 -55 -31 -30 -13 -55 -27 -55 -31 0 -10 -67 -48 -73 -42 -9 8 4 33 14 27 5 -3 8 33 7 83 l-2 88 -6 -80 -6 -80 -2 83 c-1 45 0 82 2 82 1 0 17 -5 35 -11z m-669 -620 c-45 -27 -83 -49 -86 -49 -2 0 -4 45 -4 100 l0 99 85 -51 85 -51 -80 -48z m2477 -46 c-3 -3 -151 80 -165 92 -2 2 34 25 80 52 l83 49 3 -94 c1 -52 1 -96 -1 -99z m1871 133 c35 -21 62 -40 60 -41 -7 -7 -159 -95 -163 -95 -3 0 -5 46 -5 101 l0 101 23 -14 c12 -8 50 -31 85 -52z m1019 -133 c-4 -3 -153 80 -165 92 -2 2 34 25 80 52 l83 50 3 -95 c1 -52 1 -96 -1 -99z m1926 98 c6 -6 -115 -83 -155 -99 -4 -2 -8 42 -8 97 l0 101 78 -46 c42 -25 80 -49 85 -53z m2405 -51 l-3 -49 -77 45 c-43 24 -78 48 -78 52 0 4 35 27 78 53 l77 45 3 -48 c2 -26 2 -70 0 -98z m1448 -47 c-2 -2 -41 17 -85 43 -55 32 -79 50 -72 57 6 6 43 29 83 53 l73 42 3 -95 c1 -53 1 -98 -2 -100z m1441 0 c-3 -2 -41 18 -86 45 l-82 49 83 50 83 49 3 -94 c1 -52 1 -96 -1 -99z m-11152 147 c38 -21 72 -43 77 -48 7 -7 -138 -102 -157 -102 -3 0 -5 43 -5 95 0 52 4 95 9 95 5 0 39 -18 76 -40z m4346 -6 l80 -46 -83 -49 c-46 -27 -86 -49 -91 -49 -4 0 -7 43 -6 95 0 53 5 95 10 95 6 0 46 -21 90 -46z m2884 4 c41 -24 75 -46 75 -50 0 -6 -152 -98 -163 -98 -4 0 -7 43 -7 95 0 58 4 95 10 95 6 0 44 -19 85 -42z m2886 1 c38 -23 72 -45 74 -49 4 -7 -144 -100 -160 -100 -3 0 -5 43 -5 95 0 61 4 95 11 95 6 0 42 -19 80 -41z m-11241 -514 c0 -47 -2 -85 -4 -85 -12 0 -146 83 -142 88 10 10 131 81 139 82 4 0 7 -38 7 -85z m1851 44 c38 -23 69 -43 69 -44 0 -3 -123 -75 -142 -83 -5 -2 -8 35 -8 82 0 47 3 86 6 86 3 0 37 -19 75 -41z m1435 5 c35 -20 66 -39 69 -44 4 -7 -123 -90 -138 -90 -2 0 -4 38 -5 85 -1 47 1 85 4 85 3 0 35 -16 70 -36z m1044 -50 l0 -86 -57 32 c-104 58 -102 52 -26 98 38 22 71 40 76 41 4 1 7 -38 7 -85z m1450 1 c0 -47 -3 -85 -6 -85 -8 0 -144 80 -144 85 0 5 133 85 143 85 4 0 7 -38 7 -85z m1440 0 c0 -47 -2 -85 -5 -85 -4 0 -135 78 -143 85 -4 3 129 83 141 84 4 1 7 -37 7 -84z m1448 14 c3 -103 -1 -106 -82 -58 -46 28 -65 44 -58 51 11 11 124 77 132 78 3 0 6 -32 8 -71z m404 31 c37 -23 68 -42 68 -44 0 -5 -137 -86 -144 -86 -3 0 -6 38 -6 85 0 47 3 85 7 85 4 0 37 -18 75 -40z m1451 -4 c74 -45 76 -38 -25 -95 l-58 -32 0 86 c0 48 4 85 8 83 5 -1 38 -21 75 -42z m1025 -81 l-3 -45 -68 41 c-37 22 -65 44 -62 49 3 5 34 25 68 44 l62 35 3 -39 c2 -22 2 -60 0 -85z"></path>
             <path id="p7Ukt6cSK" d="M8043 7750 c0 -30 2 -43 4 -27 2 15 2 39 0 55 -2 15 -4 2 -4 -28z"></path>
         </g>
     </g>
 </svg>
